<svg width="351" height="42" viewBox="0 0 351 42" fill="none" xmlns="http://www.w3.org/2000/svg">
<path d="M6.92982 28.9772L16.9216 1.30273C6.12404 3.90739 -0.483401 14.8144 2.09511 25.5585C4.67362 36.3027 15.4711 43.1399 26.1075 40.6981C31.9092 39.3958 36.7439 35.4888 39.4835 30.1167C27.7191 34.6748 14.1819 34.6748 6.92982 28.9772Z" fill="#ED8B00"/>
<path d="M31.748 23.6043C34.9712 23.9299 38.3555 23.6043 41.4175 22.302C41.4175 21.8136 41.5786 21.3252 41.4175 20.8368C41.4175 16.6043 40.1282 12.5345 37.7109 8.95312L31.748 23.6043Z" fill="#ED8B00"/>
<path d="M24.8181 25.3954L33.5206 4.72098C32.7148 4.06981 31.909 3.58144 31.1032 3.25586L21.7561 26.6977C25.9462 28.4884 34.004 27.1861 41.2561 24.907C41.4173 24.5814 41.4173 24.0931 41.4173 23.6047C36.2602 25.2326 28.6859 26.5349 24.8181 25.3954Z" fill="#ED8B00"/>
<path d="M15.9546 27.1863L25.9463 1.13974C24.9794 0.976949 24.1736 0.814158 23.2067 0.651367L12.5703 28.3258C18.5331 32.3956 29.4918 31.5816 40.2893 28.3258C40.4505 27.8374 40.7728 27.349 40.7728 26.6979C34.4877 29.3025 19.6612 30.6049 15.9546 27.1863Z" fill="#ED8B00"/>
<path d="M186.297 22.1393H190.487V9.76717C190.487 9.11601 190.326 8.62763 190.165 7.97647C190.004 7.4881 189.682 6.83694 189.359 6.51136C189.037 6.02298 188.554 5.6974 188.07 5.37182C187.587 5.04624 186.942 5.04624 186.297 5.04624C185.33 5.04624 184.363 5.37182 183.719 5.86019C182.913 6.51136 182.43 7.32531 182.107 8.13926L177.917 18.2323L174.049 8.62764C173.888 8.13926 173.566 7.65089 173.244 7.16252C172.921 6.67415 172.599 6.34856 172.277 6.02298C171.954 5.6974 171.471 5.37182 170.987 5.20903C170.02 4.88345 168.892 4.88345 167.764 5.20903C167.281 5.37182 166.797 5.6974 166.475 6.18577C165.669 6.99973 165.186 8.13926 165.186 9.2788V22.1393H169.376V9.76717L173.405 18.5579C173.566 19.0462 173.888 19.5346 174.211 20.023C174.533 20.5114 174.855 20.9997 175.178 21.3253C175.5 21.6509 175.983 21.9765 176.467 22.3021C176.95 22.4648 177.434 22.6276 177.917 22.6276C178.401 22.6276 179.045 22.6276 179.529 22.3021C180.012 22.1393 180.335 21.8137 180.657 21.4881C180.979 21.1625 181.301 20.6741 181.463 20.1858C181.785 19.6974 181.946 19.0462 182.268 18.3951L186.297 9.2788V22.1393Z" fill="#868686"/>
<path d="M216.756 22.3024V17.7443H197.095V15.7908H216.756V11.3954H197.095V9.44193H216.756V4.88379H198.868C198.062 4.88379 197.256 5.04658 196.45 5.20937C195.806 5.37216 195.161 5.86053 194.516 6.34891C194.033 6.83728 193.549 7.48844 193.227 8.1396C192.905 8.95356 192.744 9.60472 192.744 10.4187V16.6047C192.744 17.4187 192.905 18.2326 193.227 18.8838C193.549 19.535 194.033 20.1861 194.516 20.6745C195.161 21.1629 195.806 21.4884 196.45 21.814C197.095 22.1396 197.901 22.3024 198.706 22.3024H216.756Z" fill="#868686"/>
<path d="M162.93 22.3024V17.7443H143.268V15.7908H162.93V11.3954H143.268V9.44193H162.93V4.88379H145.041C144.235 4.88379 143.43 5.04658 142.624 5.20937C141.979 5.37216 141.335 5.86053 140.69 6.34891C140.207 6.83728 139.723 7.48844 139.401 8.1396C139.078 8.95356 138.917 9.60472 138.917 10.4187V16.6047C138.917 17.4187 139.078 18.2326 139.401 18.8838C139.723 19.535 140.207 20.1861 140.69 20.6745C141.335 21.1629 141.979 21.4884 142.624 21.814C143.268 22.1396 144.074 22.3024 144.88 22.3024H162.93Z" fill="#868686"/>
<path d="M89.1197 21.814C89.7643 22.1396 90.5701 22.3024 91.3759 22.3024H109.264V17.7443H89.7643V15.7908H109.425V11.3954H89.7643V9.44193H109.425V4.88379H91.3759C90.5701 4.88379 89.7643 5.04658 88.9585 5.20937C88.3139 5.37216 87.6693 5.86053 87.0247 6.34891C86.5412 6.83728 86.2189 7.48844 85.8966 8.1396C85.5742 8.95356 85.4131 9.60472 85.4131 10.4187V16.6047C85.4131 17.4187 85.5742 18.2326 85.8966 18.8838C86.2189 19.535 86.7023 20.1861 87.1858 20.6745C87.8304 21.1629 88.4751 21.6512 89.1197 21.814Z" fill="#868686"/>
<path d="M83.157 5.04688H78.4834V17.9073H73.3264V5.04688H68.6528V17.9073H63.4958V5.04688H58.9834V22.3027H83.157V5.04688Z" fill="#868686"/>
<path d="M116.194 9.44222H131.987V11.5585H116.194V9.44222ZM116.194 15.7911H131.02C131.826 15.7911 132.471 15.6283 133.116 15.3027C134.405 14.8143 135.533 13.6748 136.178 12.3725C136.5 11.7213 136.661 10.9073 136.661 10.2562C136.661 9.44222 136.5 8.79106 136.178 8.1399C135.855 7.48874 135.372 6.83757 134.888 6.51199C134.244 6.02362 133.599 5.69804 132.954 5.37246C132.149 5.04688 131.504 5.04688 130.698 5.04688H111.682V22.3027H116.194V15.7911Z" fill="#868686"/>
<path d="M276.545 5.37216C275.901 5.53495 275.256 6.02332 274.612 6.5117C274.128 7.00007 273.645 7.65123 273.322 8.30239C273 9.11635 272.839 9.76751 272.839 10.5815V16.7675C272.839 17.5815 273 18.3954 273.322 19.0466C273.645 19.6977 274.128 20.3489 274.612 20.8373C275.256 21.3257 275.901 21.6512 276.545 21.9768C277.19 22.3024 277.996 22.4652 278.802 22.4652H296.69V17.907H277.029V15.7908H296.69V11.3954H277.029V9.44193H296.69V4.88379H278.802C278.157 4.88379 277.351 5.04658 276.545 5.37216Z" fill="#868686"/>
<path d="M266.07 17.907H250.277V15.7908H266.07V17.907ZM268.81 13.0233C268.326 12.535 267.682 12.0466 267.037 11.8838C266.393 11.5582 265.587 11.3954 264.942 11.3954H250.116V4.88379H245.603V22.1396H264.459C265.264 22.1396 265.909 21.9768 266.715 21.814C267.359 21.4884 268.165 21.1629 268.649 20.6745C269.293 20.1861 269.616 19.6977 270.099 19.0466C270.421 18.3954 270.583 17.5815 270.583 16.9303C270.583 16.1163 270.421 15.4652 270.099 14.814C269.777 14.1629 269.293 13.5117 268.81 13.0233Z" fill="#868686"/>
<path d="M219.012 9.44222H229.004V22.1399H233.355V9.44222H243.347V5.04688H219.012V9.44222Z" fill="#868686"/>
<path d="M318.93 11.2329H303.62V9.44222H318.93V11.2329ZM318.93 17.7445H303.62V15.7911H318.93V17.7445ZM322.475 13.512C323.12 12.5352 323.442 11.3957 323.442 10.2562C323.442 9.44222 323.281 8.62827 322.959 7.97711C322.636 7.32595 322.153 6.83757 321.669 6.3492C321.025 5.86083 320.38 5.53525 319.736 5.37246C318.93 5.20967 318.124 5.04688 317.318 5.04688H299.107V22.3027H318.124C318.93 22.3027 319.574 22.1399 320.219 21.8143C320.864 21.4887 321.508 21.1632 321.992 20.6748C322.475 20.1864 322.959 19.5352 323.281 18.8841C323.603 18.2329 323.764 17.419 323.764 16.7678C323.764 16.2794 323.603 15.6283 323.281 15.1399C323.12 14.4887 322.798 14.0004 322.475 13.512Z" fill="#868686"/>
<path d="M345.682 17.9073H330.533V9.44222H345.682V17.9073ZM348.582 6.67478C348.099 6.18641 347.454 5.69804 346.81 5.53525C346.165 5.20967 345.52 5.04688 344.715 5.04688H332.144C331.339 5.04688 330.694 5.20967 329.888 5.37246C329.244 5.53525 328.599 6.02362 327.954 6.3492C327.471 6.83757 326.987 7.32595 326.504 7.97711C326.182 8.62827 326.021 9.27943 326.021 10.0934V16.605C326.021 17.419 326.182 18.0701 326.504 18.7213C326.826 19.3725 327.149 20.0236 327.632 20.512C328.116 21.0004 328.76 21.3259 329.405 21.6515C330.049 21.9771 330.855 22.1399 331.5 22.1399H344.715C345.359 22.1399 346.165 21.9771 346.81 21.6515C347.454 21.3259 348.099 21.0004 348.582 20.512C349.066 20.0236 349.549 19.5352 349.711 18.8841C350.033 18.2329 350.194 17.5818 350.194 16.9306V10.5818C350.194 9.9306 350.033 9.11664 349.711 8.46548C349.388 7.81432 349.066 7.16315 348.582 6.67478Z" fill="#868686"/>
<path d="M111.843 34.5115H104.107V30.4418H111.843V34.5115ZM113.938 30.9301C113.938 30.6046 113.938 30.279 113.777 29.9534C113.616 29.6278 113.454 29.3022 113.132 29.1394C112.81 28.9767 112.487 28.6511 112.165 28.6511C111.843 28.4883 111.521 28.4883 111.037 28.4883H104.913C104.591 28.4883 104.268 28.4883 103.785 28.6511C103.463 28.8139 103.14 28.9767 102.979 29.1394C102.657 29.3022 102.496 29.6278 102.335 29.9534C102.173 30.279 102.173 30.6046 102.173 30.9301V34.5115H101.529V36.7906H114.905V34.5115H113.938V30.9301Z" fill="#868686"/>
<path d="M74.7767 28.3253C74.4544 28.4881 74.1321 28.6509 73.8098 28.8137C73.4875 28.9764 73.3263 29.302 73.1652 29.6276C73.004 29.9532 72.8429 30.4416 73.004 30.7671V33.8602C73.004 34.1857 73.004 34.6741 73.3263 34.9997C73.4875 35.3253 73.6486 35.6509 73.971 35.8137C74.2933 36.1392 74.6156 36.302 74.9379 36.4648C75.2602 36.6276 75.7437 36.6276 76.066 36.6276H85.0908V34.3485H75.2602V33.3718H85.0908V31.0927H75.2602V30.116H85.0908V27.8369H76.066C75.5825 28.1625 75.0991 28.1625 74.7767 28.3253Z" fill="#868686"/>
<path d="M293.95 34.674H286.376V30.4415H293.95V34.674ZM295.401 29.1391C295.078 28.8136 294.917 28.6508 294.595 28.488C294.273 28.3252 293.95 28.3252 293.628 28.3252H287.343C287.02 28.3252 286.537 28.3252 286.215 28.488C285.892 28.6508 285.57 28.8136 285.248 28.9764C284.925 29.1391 284.764 29.4647 284.603 29.7903C284.442 30.1159 284.281 30.4415 284.281 30.7671V34.0229C284.281 34.3485 284.281 34.8368 284.442 35.1624C284.603 35.488 284.764 35.8136 285.087 35.9764C285.409 36.3019 285.57 36.4647 285.892 36.6275C286.215 36.7903 286.537 36.7903 287.02 36.7903H293.628C293.95 36.7903 294.273 36.7903 294.595 36.6275C294.917 36.4647 295.239 36.3019 295.401 36.1392C295.723 35.9764 295.884 35.6508 296.045 35.3252C296.206 34.9996 296.206 34.674 296.206 34.3485V31.0926C296.206 30.7671 296.206 30.4415 296.045 30.1159C295.884 29.6275 295.562 29.3019 295.401 29.1391Z" fill="#868686"/>
<path d="M100.401 28.1628H97.4998L95.2436 30.7674L95.0824 30.9302C94.9213 31.093 94.9212 31.093 94.7601 31.2558C94.5989 31.4186 94.5989 31.4186 94.4378 31.5814C94.4378 31.7442 94.2766 31.7442 94.2766 31.907V28.1628H91.8593V31.7442C91.8593 31.5814 91.6981 31.5814 91.6981 31.4186C91.6981 31.2558 91.537 31.2558 91.537 31.093C91.537 30.9302 91.3758 30.9302 91.3758 30.7674C91.3758 30.6046 91.2146 30.6046 91.2146 30.6046L88.9584 28H86.0576L89.7642 32.3953L86.0576 36.6279H88.7973L91.2146 34.0233C91.3758 33.8605 91.537 33.6977 91.537 33.6977C91.6981 33.5349 91.6981 33.5349 91.6981 33.5349L91.8593 33.3721L92.0204 33.2093V36.7907H94.4378V33.0465L94.5989 33.2093L94.7601 33.3721C94.7601 33.3721 94.9213 33.5349 94.9213 33.6977C95.0824 33.8605 95.0824 34.0233 95.2436 34.186L97.6609 36.7907H100.239L96.694 32.5581L100.401 28.1628Z" fill="#868686"/>
<path d="M280.735 31.581H272.839V30.4415H280.735V31.581ZM282.025 28.9764C281.702 28.8136 281.38 28.488 281.058 28.488C280.735 28.3252 280.252 28.3252 279.93 28.3252H270.421V36.9531H272.678V33.6973H280.091C280.413 33.6973 280.897 33.6973 281.219 33.5345C281.541 33.3717 281.864 33.2089 282.186 32.8833C282.508 32.5578 282.669 32.395 282.83 32.0694C282.992 31.7438 282.992 31.4182 282.992 30.9298C282.992 30.6043 282.992 30.1159 282.669 29.7903C282.669 29.4647 282.347 29.1391 282.025 28.9764Z" fill="#868686"/>
<path d="M320.541 34.674H312.967V30.4415H320.541V34.674ZM321.992 29.1391C321.669 28.8136 321.508 28.6508 321.186 28.488C320.864 28.3252 320.541 28.3252 320.219 28.3252H313.934C313.612 28.3252 313.128 28.3252 312.806 28.488C312.483 28.6508 312.161 28.8136 311.839 28.9764C311.516 29.1391 311.355 29.4647 311.194 29.7903C311.033 30.1159 310.872 30.4415 310.872 30.7671V34.0229C310.872 34.3485 310.872 34.8368 311.033 35.1624C311.194 35.488 311.355 35.8136 311.678 35.9764C312 36.3019 312.161 36.4647 312.483 36.6275C312.806 36.7903 313.128 36.7903 313.612 36.7903H320.219C320.541 36.7903 320.864 36.7903 321.186 36.6275C321.508 36.4647 321.831 36.3019 321.992 36.1392C322.314 35.9764 322.475 35.6508 322.636 35.3252C322.797 34.9996 322.797 34.674 322.797 34.3485V31.0926C322.797 30.7671 322.797 30.4415 322.636 30.1159C322.475 29.6275 322.153 29.3019 321.992 29.1391Z" fill="#868686"/>
<path d="M297.334 36.9538H299.591V30.4422H307.326V36.9538H309.582V28.1631H297.334V36.9538Z" fill="#868686"/>
<path d="M334.078 31.581H326.182V30.4415H334.078V31.581ZM335.529 28.9764C335.207 28.8136 334.884 28.488 334.562 28.488C334.24 28.3252 333.756 28.3252 333.434 28.3252H323.926V36.9531H326.182V33.6973H333.595C333.917 33.6973 334.401 33.6973 334.723 33.5345C335.045 33.3717 335.368 33.2089 335.69 32.8833C336.012 32.5578 336.173 32.395 336.335 32.0694C336.496 31.7438 336.496 31.4182 336.496 30.9298C336.496 30.6043 336.496 30.1159 336.173 29.7903C336.012 29.4647 335.851 29.1391 335.529 28.9764Z" fill="#868686"/>
<path d="M71.2313 28.9764C71.0701 28.8136 70.7478 28.6508 70.5867 28.488C70.2643 28.3252 69.942 28.3252 69.7809 28.3252C69.2974 28.3252 68.8139 28.488 68.4916 28.8136C68.1693 29.1392 67.847 29.4647 67.6858 29.9531L65.5908 34.9996L63.6569 30.1159C63.4957 29.7903 63.4957 29.6275 63.3346 29.4647C63.1734 29.3019 63.0123 28.9764 62.8511 28.8136C62.69 28.6508 62.3676 28.488 62.2065 28.488C61.723 28.3252 61.0784 28.3252 60.5949 28.488C59.7891 28.8136 59.3057 29.6275 59.3057 30.4415V36.9531H61.4007V30.6043L63.3346 34.9996C63.4957 35.3252 63.6569 35.488 63.6569 35.8136C63.8181 35.9764 63.9792 36.3019 64.1404 36.4647C64.3015 36.6275 64.4627 36.7903 64.785 36.9531C64.9462 37.1159 65.2685 37.1159 65.5908 37.1159C65.9131 37.1159 66.0743 37.1159 66.3966 36.9531C66.5577 36.7903 66.7189 36.7903 66.88 36.6275C67.0412 36.4647 67.2024 36.3019 67.3635 35.9764C67.5247 35.6508 67.6858 35.488 67.847 35.1624L69.942 30.6043V36.9531H71.7148V30.7671C71.7148 30.4415 71.7148 30.1159 71.5536 29.7903C71.5536 29.4647 71.3924 29.1391 71.2313 28.9764Z" fill="#868686"/>
<path d="M337.624 30.4422H342.458V36.791H344.715V30.4422H349.711V28.1631H337.624V30.4422Z" fill="#868686"/>
<path d="M165.83 31.581H157.934V30.4415H165.83V31.581ZM167.12 28.9764C166.797 28.8136 166.475 28.488 166.153 28.488C165.83 28.3252 165.347 28.3252 165.025 28.3252H155.516V36.9531H157.773V33.6973H165.186C165.508 33.6973 165.992 33.6973 166.314 33.5345C166.958 33.2089 167.442 32.7205 167.764 32.0694C167.925 31.7438 167.925 31.4182 167.925 30.9298C167.925 30.6043 167.764 30.1159 167.603 29.7903C167.603 29.4647 167.442 29.1391 167.12 28.9764Z" fill="#868686"/>
<path d="M179.045 34.674H171.471V30.4415H179.045V34.674ZM180.496 29.1391C180.174 28.8136 180.012 28.6508 179.69 28.488C179.368 28.3252 179.045 28.3252 178.723 28.3252H172.438C172.116 28.3252 171.632 28.3252 171.31 28.488C170.988 28.6508 170.665 28.8136 170.343 28.9764C170.021 29.1391 169.859 29.4647 169.698 29.7903C169.537 30.1159 169.376 30.4415 169.376 30.7671V34.0229C169.376 34.3485 169.376 34.8368 169.537 35.1624C169.698 35.488 169.859 35.8136 170.182 35.9764C170.504 36.3019 170.665 36.4647 170.988 36.6275C171.31 36.7903 171.632 36.7903 172.116 36.7903H178.723C179.045 36.7903 179.368 36.7903 179.69 36.6275C180.012 36.4647 180.335 36.3019 180.496 36.1392C180.818 35.9764 180.979 35.6508 181.14 35.3252C181.302 34.9996 181.302 34.674 181.302 34.3485V31.0926C181.302 30.7671 181.302 30.4415 181.14 30.1159C180.818 29.6275 180.657 29.3019 180.496 29.1391Z" fill="#868686"/>
<path d="M235.45 28.4884C235.289 28.3256 234.967 28.1628 234.806 28.1628C234.483 28 234.322 28 234 28C233.355 28 232.711 28.3256 232.227 28.814L226.426 34.6744V28.1628H224.331V34.5116C224.331 34.8372 224.331 35.1628 224.492 35.4884C224.653 35.814 224.653 35.9767 224.975 36.3023C225.136 36.4651 225.459 36.6279 225.62 36.7907C225.942 36.9535 226.264 36.9535 226.587 36.9535C226.909 36.9535 227.231 36.9535 227.554 36.7907C227.876 36.6279 228.198 36.4651 228.359 36.1395L234.161 30.4419V36.9535H236.256V30.2791C236.256 29.9535 236.256 29.6279 236.095 29.3023C235.773 28.9767 235.612 28.6512 235.45 28.4884Z" fill="#868686"/>
<path d="M192.744 34.5115H185.008V30.4418H192.744V34.5115ZM194.839 30.9301C194.839 30.6046 194.839 30.279 194.678 29.9534C194.516 29.6278 194.355 29.3022 194.033 29.1394C193.711 28.9767 193.388 28.6511 193.066 28.6511C192.744 28.4883 192.421 28.4883 191.938 28.4883H185.814C185.492 28.4883 185.169 28.4883 184.686 28.6511C184.364 28.8139 184.041 28.9767 183.88 29.1394C183.558 29.3022 183.397 29.6278 183.235 29.9534C183.074 30.279 183.074 30.6046 183.074 30.9301V34.5115H182.43V36.7906H195.806V34.5115H194.839V30.9301Z" fill="#868686"/>
<path d="M223.041 28.1631H220.946V36.791H223.041V28.1631Z" fill="#868686"/>
<path d="M126.186 31.4189H118.128V28.1631H116.033V30.9305C116.033 31.2561 116.033 31.5817 116.194 32.0701C116.355 32.3956 116.516 32.7212 116.839 32.884C117.161 33.0468 117.483 33.3724 117.806 33.3724C118.128 33.5352 118.45 33.5352 118.934 33.5352H126.347V34.5119H116.678V36.791H125.864C126.186 36.791 126.508 36.791 126.83 36.6282C127.153 36.4654 127.475 36.3026 127.636 35.977C127.959 35.6515 128.12 35.4887 128.281 35.1631C128.442 34.8375 128.442 34.5119 128.442 34.0236V28.1631H126.186V31.4189Z" fill="#868686"/>
<path d="M206.926 31.4189H199.029V28.1631H196.773V36.791H199.029V33.5352H206.926V36.791H209.021V28.1631H206.926V31.4189Z" fill="#868686"/>
<path d="M139.562 31.4189H131.665V28.1631H129.57V36.791H131.665V33.5352H139.562V36.791H141.818V28.1631H139.562V31.4189Z" fill="#868686"/>
<path d="M268.488 28.9764C268.165 28.8136 267.843 28.488 267.521 28.488C267.198 28.3252 266.715 28.3252 266.392 28.3252H257.368V30.6043H267.198V31.581H257.368V33.8601H267.198V34.8368H257.368V37.1159H266.392C266.715 37.1159 267.198 37.1159 267.521 36.9531C267.843 36.7903 268.165 36.6275 268.488 36.3019C268.81 35.9764 268.971 35.8136 269.132 35.488C269.293 35.1624 269.454 34.674 269.454 34.3485V30.9298C269.454 30.6043 269.454 30.1159 269.293 29.7903C268.971 29.4647 268.81 29.1391 268.488 28.9764Z" fill="#868686"/>
<path d="M217.723 34.6747H212.566V33.5352H217.723V34.6747ZM219.012 32.2329C218.69 31.9073 218.529 31.7445 218.045 31.5817C217.723 31.4189 217.401 31.4189 216.917 31.4189H212.244V28.1631H209.988V36.791H216.595C216.917 36.791 217.401 36.791 217.723 36.6282C218.045 36.4654 218.368 36.3026 218.69 36.1398C219.012 35.977 219.174 35.6515 219.335 35.3259C219.496 35.0003 219.657 34.6747 219.657 34.1863C219.657 33.8608 219.657 33.3724 219.496 33.0468C219.496 32.7212 219.335 32.5584 219.012 32.2329Z" fill="#868686"/>
<path d="M147.62 32.3956L148.587 30.6049L149.554 32.3956H147.62ZM150.52 29.4654C150.359 29.1398 150.198 28.977 150.037 28.8143C149.876 28.6515 149.715 28.4887 149.392 28.3259C149.07 28.1631 148.909 28.1631 148.587 28.1631C148.264 28.1631 148.103 28.1631 147.781 28.3259C147.62 28.4887 147.297 28.6515 147.136 28.8143C146.975 28.977 146.814 29.3026 146.653 29.4654C146.492 29.791 146.33 29.9538 146.169 30.2794L142.785 36.791H145.202L146.33 34.5119H150.52L151.81 36.791H154.227L150.843 30.2794C150.843 30.1166 150.682 29.791 150.52 29.4654Z" fill="#868686"/>
<path d="M249.471 32.3956L250.438 30.6049L251.405 32.3956H249.471ZM252.372 29.4654C252.211 29.1398 252.049 28.977 251.888 28.8143C251.727 28.6515 251.566 28.4887 251.244 28.3259C250.921 28.1631 250.76 28.1631 250.438 28.1631C250.116 28.1631 249.954 28.1631 249.632 28.3259C249.471 28.4887 249.149 28.6515 248.987 28.8143C248.826 28.977 248.665 29.3026 248.504 29.4654C248.343 29.791 248.182 29.9538 248.021 30.2794L244.636 36.791H247.054L248.182 34.5119H252.372L253.661 36.791H256.078L252.694 30.2794C252.694 30.1166 252.533 29.791 252.372 29.4654Z" fill="#868686"/>
<path d="M233.516 24.7441H227.07V26.6976H233.516V24.7441Z" fill="#868686"/>
</svg>