<svg width="225" height="225" viewBox="0 0 225 225" fill="none" xmlns="http://www.w3.org/2000/svg">
<circle cx="112.5" cy="112.5" r="112.5" fill="white"/>
<path d="M106.243 88.2029C96.6171 91.465 94.2892 75.258 76.6225 76.9913C62.0639 78.4038 48.3609 99.5685 51.5067 116.515C55.2816 136.858 72.4544 150.241 84.2227 150.354C97.435 150.486 104.837 143.433 117.149 139.142C131.409 134.166 153.417 137.299 165.173 127.157C176.498 117.389 178.14 92.4497 171.738 78.97C165.384 65.5879 149.655 52.5865 135.395 59.1265C119.767 66.2989 120.295 83.4213 106.243 88.2029Z" fill="#ED8B00"/>
<path opacity="0.7" d="M106.243 88.2029C96.6171 91.465 94.2892 75.258 76.6225 76.9913C62.0639 78.4038 48.3609 99.5685 51.5067 116.515C55.2816 136.858 72.4544 150.241 84.2227 150.354C97.435 150.486 104.837 143.433 117.149 139.142C131.409 134.166 153.417 137.299 165.173 127.157C176.498 117.389 178.14 92.4497 171.738 78.97C165.384 65.5879 149.655 52.5865 135.395 59.1265C119.767 66.2989 120.295 83.4213 106.243 88.2029Z" fill="white"/>
<path d="M47.9417 156.591H178.038" stroke="#48535B" stroke-width="0.8" stroke-linecap="round" stroke-linejoin="round"/>
<path d="M114.009 167.335C138.8 167.335 158.896 166.033 158.896 164.425C158.896 162.818 138.8 161.516 114.009 161.516C89.2189 161.516 69.1223 162.818 69.1223 164.425C69.1223 166.033 89.2189 167.335 114.009 167.335Z" fill="#ED8B00"/>
<path d="M54.4102 103.567C54.4102 103.567 59.3144 109.312 60.557 122.628C61.7996 135.944 63.234 145.655 63.234 145.655" stroke="#48535B" stroke-width="0.8" stroke-linecap="round" stroke-linejoin="round"/>
<path d="M46.6464 93.0573C46.4623 93.0346 46.2764 93.0823 46.1259 93.1908C45.9755 93.2992 45.8715 93.4605 45.8348 93.6424C45.1082 97.3387 41.9655 115.112 49.3329 112.769C55.4452 110.825 55.0456 106.351 54.4385 104.19C54.4102 104.089 54.4109 103.983 54.4406 103.882C54.4702 103.782 54.5276 103.692 54.6061 103.622C54.6846 103.553 54.7811 103.507 54.8844 103.49C54.9878 103.473 55.0938 103.486 55.1903 103.526C57.5748 104.511 62.7622 106.062 63.3347 101.192C63.9954 95.5833 49.9275 93.4725 46.6464 93.0573Z" fill="#ED8B00" stroke="#48535B" stroke-width="0.8" stroke-linecap="round" stroke-linejoin="round"/>
<path d="M49.3333 96.291C50.8039 97.9663 52.0866 99.7975 53.1585 101.752" stroke="#48535B" stroke-width="0.8" stroke-linecap="round" stroke-linejoin="round"/>
<path d="M47.093 94.0986C47.547 94.4659 47.9787 94.8598 48.3859 95.2783" stroke="#48535B" stroke-width="0.8" stroke-linecap="round" stroke-linejoin="round"/>
<path d="M52.592 102.988C52.592 102.988 50.5378 100.83 45.4983 101.762" stroke="#48535B" stroke-width="0.8" stroke-linecap="round" stroke-linejoin="round"/>
<path d="M54.8413 95.6875C55.4091 97.6693 55.4091 99.7707 54.8413 101.753" stroke="#48535B" stroke-width="0.8" stroke-linecap="round" stroke-linejoin="round"/>
<path d="M46.3731 107.254C46.0493 107.535 45.7581 107.852 45.5049 108.198" stroke="#48535B" stroke-width="0.8" stroke-linecap="round" stroke-linejoin="round"/>
<path d="M53.1582 104.835C53.1582 104.835 49.7608 105.008 47.2441 106.606" stroke="#48535B" stroke-width="0.8" stroke-linecap="round" stroke-linejoin="round"/>
<path d="M55.9612 102.989C55.9612 102.989 59.7864 101.856 60.7207 98.7295" stroke="#48535B" stroke-width="0.8" stroke-linecap="round" stroke-linejoin="round"/>
<path d="M68.2043 122.851C68.2043 122.851 65.4014 126.135 64.6904 133.751C63.9795 141.367 63.1584 146.922 63.1584 146.922" stroke="#48535B" stroke-width="0.8" stroke-linecap="round" stroke-linejoin="round"/>
<path d="M72.3818 117.176C72.4876 117.163 72.5945 117.19 72.6808 117.253C72.7672 117.315 72.8267 117.408 72.8474 117.513C73.2627 119.623 75.0495 129.781 70.8467 128.451C67.3518 127.337 67.5814 124.779 67.9274 123.543C67.9457 123.485 67.9468 123.423 67.9305 123.364C67.9142 123.306 67.8813 123.253 67.8357 123.213C67.79 123.172 67.7337 123.146 67.6735 123.137C67.6133 123.128 67.5518 123.137 67.4965 123.162C66.1343 123.729 63.1679 124.613 62.8407 121.829C62.4632 118.62 70.5227 117.415 72.3818 117.176Z" fill="#ED8B00" stroke="#48535B" stroke-width="0.8" stroke-linecap="round" stroke-linejoin="round"/>
<path d="M70.8375 119.032C69.9923 119.99 69.2539 121.038 68.6355 122.156" stroke="#48535B" stroke-width="0.8" stroke-linecap="round" stroke-linejoin="round"/>
<path d="M72.1308 117.774C71.8692 117.984 71.6209 118.211 71.3875 118.452" stroke="#48535B" stroke-width="0.8" stroke-linecap="round" stroke-linejoin="round"/>
<path d="M68.9783 122.85C68.9783 122.85 70.1548 121.614 73.0363 122.149" stroke="#48535B" stroke-width="0.8" stroke-linecap="round" stroke-linejoin="round"/>
<path d="M67.6918 118.68C67.3684 119.81 67.3684 121.009 67.6918 122.14" stroke="#48535B" stroke-width="0.8" stroke-linecap="round" stroke-linejoin="round"/>
<path d="M72.5393 125.295C72.7251 125.455 72.8921 125.636 73.037 125.834" stroke="#48535B" stroke-width="0.8" stroke-linecap="round" stroke-linejoin="round"/>
<path d="M68.6572 123.91C68.6572 123.91 70.595 124.011 72.0389 124.923" stroke="#48535B" stroke-width="0.8" stroke-linecap="round" stroke-linejoin="round"/>
<path d="M67.0629 122.85C67.0629 122.85 64.8608 122.202 64.3418 120.412" stroke="#48535B" stroke-width="0.8" stroke-linecap="round" stroke-linejoin="round"/>
<path d="M54.9766 119.79C54.9766 119.79 59.5002 125.091 60.6389 137.381C61.0133 141.269 61.4002 144.827 61.7431 147.866" stroke="#48535B" stroke-width="0.8" stroke-linecap="round" stroke-linejoin="round"/>
<path d="M46.379 115.92C46.2425 115.966 46.1287 116.063 46.0605 116.19C45.9923 116.317 45.9745 116.466 46.0109 116.605C46.7628 119.437 50.6321 132.891 54.9669 128.748C58.5688 125.307 56.7632 122.324 55.5961 121.025C55.5421 120.965 55.5063 120.89 55.4927 120.811C55.4791 120.731 55.4883 120.649 55.5191 120.574C55.55 120.499 55.6013 120.434 55.6672 120.387C55.7331 120.34 55.811 120.313 55.8918 120.308C57.8893 120.182 62.0355 119.493 60.7772 115.904C59.3333 111.767 48.8169 115.092 46.379 115.92Z" fill="#ED8B00" stroke="#48535B" stroke-width="0.8" stroke-linecap="round" stroke-linejoin="round"/>
<path opacity="0.2" d="M46.379 115.92C46.2425 115.966 46.1287 116.063 46.0605 116.19C45.9923 116.317 45.9745 116.466 46.0109 116.605C46.7628 119.437 50.6321 132.891 54.9669 128.748C58.5688 125.307 56.7632 122.324 55.5961 121.025C55.5421 120.965 55.5063 120.89 55.4927 120.811C55.4791 120.731 55.4883 120.649 55.5191 120.574C55.55 120.499 55.6013 120.434 55.6672 120.387C55.7331 120.34 55.811 120.313 55.8918 120.308C57.8893 120.182 62.0355 119.493 60.7772 115.904C59.3333 111.767 48.8169 115.092 46.379 115.92Z" fill="#48535B"/>
<path d="M49.3516 117.257C50.9489 117.928 52.468 118.772 53.8815 119.773" stroke="#48535B" stroke-width="0.8" stroke-linecap="round" stroke-linejoin="round"/>
<path d="M47.0432 116.493C47.4847 116.594 47.9197 116.723 48.3456 116.877" stroke="#48535B" stroke-width="0.8" stroke-linecap="round" stroke-linejoin="round"/>
<path d="M53.9101 120.809C53.9101 120.809 51.7427 120.004 48.5435 122.382" stroke="#48535B" stroke-width="0.8" stroke-linecap="round" stroke-linejoin="round"/>
<path d="M52.9851 114.961C54.0569 116.149 54.7731 117.614 55.0519 119.189" stroke="#48535B" stroke-width="0.8" stroke-linecap="round" stroke-linejoin="round"/>
<path d="M51.0194 125.915C50.8891 126.218 50.7931 126.535 50.7332 126.859" stroke="#48535B" stroke-width="0.8" stroke-linecap="round" stroke-linejoin="round"/>
<path d="M54.9325 121.91C54.9325 121.91 52.6298 123.187 51.4155 125.163" stroke="#48535B" stroke-width="0.8" stroke-linecap="round" stroke-linejoin="round"/>
<path d="M56.2534 119.66C56.2534 119.66 58.5341 117.565 58.1189 115.067" stroke="#48535B" stroke-width="0.8" stroke-linecap="round" stroke-linejoin="round"/>
<path d="M64.5461 156.592H59.9911C59.1395 156.592 58.3204 156.266 57.7015 155.681C57.0827 155.096 56.711 154.296 56.6628 153.446L56.1973 144.462H68.3431L67.8775 153.446C67.8285 154.297 67.4562 155.096 66.8369 155.681C66.2175 156.266 65.398 156.592 64.5461 156.592Z" fill="#B5C2C9" stroke="#48535B" stroke-width="0.8" stroke-linecap="round" stroke-linejoin="round"/>
<path d="M131.138 143.005C131.226 142.153 133.617 119.412 133.708 118.55C133.789 117.885 134.107 117.271 134.604 116.821C135.101 116.372 135.743 116.117 136.413 116.103H171.86L168.774 145.456H133.327C133.015 145.462 132.706 145.401 132.419 145.276C132.133 145.152 131.877 144.967 131.669 144.734C131.461 144.501 131.306 144.226 131.214 143.928C131.123 143.629 131.097 143.315 131.138 143.005Z" fill="#ED8B00"/>
<mask id="mask0_1765_6763" style="mask-type:luminance" maskUnits="userSpaceOnUse" x="131" y="116" width="41" height="30">
<path d="M131.139 143.005C131.227 142.153 133.618 119.412 133.709 118.55C133.79 117.885 134.108 117.271 134.605 116.821C135.102 116.372 135.744 116.117 136.414 116.103H171.861L168.775 145.456H133.328C133.016 145.462 132.706 145.401 132.42 145.276C132.134 145.152 131.878 144.967 131.67 144.734C131.462 144.501 131.307 144.226 131.215 143.928C131.123 143.629 131.097 143.315 131.139 143.005Z" fill="white"/>
</mask>
<g mask="url(#mask0_1765_6763)">
<path opacity="0.6" d="M131.139 143.005C131.227 142.153 133.618 119.412 133.709 118.55C133.79 117.885 134.108 117.271 134.605 116.821C135.102 116.372 135.744 116.117 136.414 116.103H171.861L168.775 145.456H133.328C133.016 145.462 132.706 145.401 132.42 145.276C132.134 145.152 131.878 144.967 131.67 144.734C131.462 144.501 131.307 144.226 131.215 143.928C131.123 143.629 131.097 143.315 131.139 143.005Z" fill="white"/>
</g>
<path d="M131.138 143.005C131.226 142.153 133.617 119.412 133.708 118.55C133.789 117.885 134.107 117.271 134.604 116.821C135.101 116.372 135.743 116.117 136.413 116.103H171.86L168.774 145.456H133.327C133.015 145.462 132.706 145.401 132.419 145.276C132.133 145.152 131.877 144.967 131.669 144.734C131.461 144.501 131.306 144.226 131.214 143.928C131.123 143.629 131.097 143.315 131.138 143.005Z" stroke="#48535B" stroke-width="0.8" stroke-linecap="round" stroke-linejoin="round"/>
<path d="M168.771 122.177C168.985 120.145 169.133 118.748 169.155 118.547C169.236 117.882 169.554 117.268 170.051 116.818C170.548 116.369 171.19 116.113 171.86 116.099C172.173 116.091 172.484 116.151 172.771 116.275C173.059 116.398 173.316 116.583 173.525 116.815C173.735 117.048 173.891 117.323 173.984 117.622C174.076 117.921 174.103 118.237 174.062 118.547C173.952 119.601 171.602 141.948 171.492 143.002C171.411 143.668 171.093 144.282 170.596 144.732C170.099 145.182 169.457 145.438 168.787 145.453C168.474 145.46 168.163 145.4 167.875 145.276C167.588 145.152 167.33 144.967 167.121 144.734C166.912 144.502 166.756 144.226 166.663 143.927C166.57 143.628 166.544 143.312 166.585 143.002C166.647 142.414 167.802 131.426 168.544 124.373" fill="#ED8B00"/>
<mask id="mask1_1765_6763" style="mask-type:luminance" maskUnits="userSpaceOnUse" x="166" y="116" width="9" height="30">
<path d="M168.771 122.176C168.985 120.144 169.133 118.747 169.155 118.546C169.236 117.881 169.554 117.267 170.051 116.817C170.548 116.368 171.19 116.112 171.86 116.098C172.173 116.09 172.484 116.15 172.772 116.274C173.059 116.397 173.316 116.582 173.526 116.814C173.735 117.047 173.891 117.322 173.984 117.621C174.077 117.92 174.103 118.236 174.062 118.546C173.952 119.6 171.602 141.947 171.492 143.001C171.411 143.667 171.093 144.281 170.597 144.731C170.1 145.181 169.457 145.437 168.787 145.452C168.474 145.459 168.163 145.399 167.875 145.275C167.588 145.151 167.331 144.966 167.121 144.733C166.912 144.501 166.756 144.225 166.663 143.926C166.571 143.627 166.544 143.311 166.585 143.001C166.648 142.413 167.802 131.425 168.545 124.372" fill="white"/>
</mask>
<g mask="url(#mask1_1765_6763)">
<path opacity="0.3" d="M169.155 118.549C169.236 117.883 169.554 117.27 170.051 116.82C170.548 116.371 171.19 116.115 171.86 116.101C172.173 116.093 172.484 116.153 172.772 116.277C173.059 116.4 173.316 116.585 173.526 116.817C173.735 117.05 173.891 117.325 173.984 117.624C174.077 117.923 174.103 118.238 174.062 118.549C173.952 119.603 171.602 141.95 171.492 143.004C171.411 143.669 171.093 144.284 170.597 144.734C170.1 145.184 169.457 145.44 168.787 145.455C168.474 145.462 168.163 145.402 167.875 145.278C167.588 145.154 167.331 144.969 167.121 144.736C166.912 144.504 166.756 144.228 166.663 143.929C166.571 143.63 166.544 143.314 166.585 143.004C166.673 142.151 169.064 119.404 169.155 118.549Z" fill="white"/>
</g>
<path d="M168.771 122.177C168.985 120.145 169.133 118.748 169.155 118.547C169.236 117.882 169.554 117.268 170.051 116.818C170.548 116.369 171.19 116.113 171.86 116.099C172.173 116.091 172.484 116.151 172.771 116.275C173.059 116.398 173.316 116.583 173.525 116.815C173.735 117.048 173.891 117.323 173.984 117.622C174.076 117.921 174.103 118.237 174.062 118.547C173.952 119.601 171.602 141.948 171.492 143.002C171.411 143.668 171.093 144.282 170.596 144.732C170.099 145.182 169.457 145.438 168.787 145.453C168.474 145.46 168.163 145.4 167.875 145.276C167.588 145.152 167.33 144.967 167.121 144.734C166.912 144.502 166.756 144.226 166.663 143.927C166.57 143.628 166.544 143.312 166.585 143.002C166.647 142.414 167.802 131.426 168.544 124.373" stroke="#48535B" stroke-width="0.8" stroke-linecap="round" stroke-linejoin="round"/>
<path d="M158.893 127.245H175.213C176.49 127.277 177.704 127.808 178.596 128.722C179.488 129.637 179.987 130.864 179.987 132.142C179.987 133.419 179.488 134.646 178.596 135.561C177.704 136.475 176.49 137.006 175.213 137.038V155.208C175.213 155.573 175.068 155.924 174.81 156.182C174.551 156.441 174.201 156.586 173.836 156.586H155.373C155.008 156.585 154.658 156.439 154.401 156.181C154.143 155.923 153.998 155.573 153.998 155.208V132.14C153.998 130.842 154.514 129.597 155.432 128.679C156.35 127.761 157.595 127.245 158.893 127.245Z" fill="#ED8B00"/>
<mask id="mask2_1765_6763" style="mask-type:luminance" maskUnits="userSpaceOnUse" x="153" y="127" width="27" height="30">
<path d="M158.893 127.243H175.213C176.49 127.276 177.704 127.806 178.596 128.72C179.488 129.635 179.987 130.862 179.987 132.14C179.987 133.417 179.488 134.644 178.596 135.559C177.704 136.473 176.49 137.004 175.213 137.036V155.206C175.213 155.571 175.068 155.922 174.81 156.18C174.551 156.439 174.201 156.584 173.836 156.584H155.373C155.008 156.583 154.658 156.437 154.401 156.179C154.143 155.921 153.998 155.571 153.998 155.206V132.138C153.998 130.84 154.514 129.595 155.432 128.677C156.35 127.759 157.595 127.243 158.893 127.243Z" fill="white"/>
</mask>
<g mask="url(#mask2_1765_6763)">
<path opacity="0.6" d="M158.893 127.243H175.213C176.49 127.276 177.704 127.806 178.596 128.72C179.488 129.635 179.987 130.862 179.987 132.14C179.987 133.417 179.488 134.644 178.596 135.559C177.704 136.473 176.49 137.004 175.213 137.036V155.206C175.213 155.571 175.068 155.922 174.81 156.18C174.551 156.439 174.201 156.584 173.836 156.584H155.373C155.008 156.583 154.658 156.437 154.401 156.179C154.143 155.921 153.998 155.571 153.998 155.206V132.138C153.998 130.84 154.514 129.595 155.432 128.677C156.35 127.759 157.595 127.243 158.893 127.243Z" fill="white"/>
</g>
<path d="M158.893 127.245H175.213C176.49 127.277 177.704 127.808 178.596 128.722C179.488 129.637 179.987 130.864 179.987 132.142C179.987 133.419 179.488 134.646 178.596 135.561C177.704 136.475 176.49 137.006 175.213 137.038V155.208C175.213 155.573 175.068 155.924 174.81 156.182C174.551 156.441 174.201 156.586 173.836 156.586H155.373C155.008 156.585 154.658 156.439 154.401 156.181C154.143 155.923 153.998 155.573 153.998 155.208V132.14C153.998 130.842 154.514 129.597 155.432 128.679C156.35 127.761 157.595 127.245 158.893 127.245Z" stroke="#48535B" stroke-width="0.8" stroke-linecap="round" stroke-linejoin="round"/>
<path d="M127.489 127.245H111.169C109.892 127.277 108.678 127.808 107.786 128.722C106.894 129.637 106.395 130.864 106.395 132.142C106.395 133.419 106.894 134.646 107.786 135.561C108.678 136.475 109.892 137.006 111.169 137.038V155.208C111.169 155.573 111.314 155.924 111.572 156.182C111.831 156.441 112.181 156.586 112.546 156.586H131.009C131.374 156.585 131.724 156.439 131.981 156.181C132.239 155.923 132.384 155.573 132.384 155.208V132.14C132.384 130.842 131.868 129.597 130.95 128.679C130.032 127.761 128.787 127.245 127.489 127.245Z" fill="#ED8B00"/>
<mask id="mask3_1765_6763" style="mask-type:luminance" maskUnits="userSpaceOnUse" x="106" y="127" width="27" height="30">
<path d="M127.489 127.243H111.169C109.892 127.276 108.678 127.806 107.786 128.72C106.894 129.635 106.395 130.862 106.395 132.14C106.395 133.417 106.894 134.644 107.786 135.559C108.678 136.473 109.892 137.004 111.169 137.036V155.206C111.169 155.571 111.314 155.922 111.572 156.18C111.831 156.439 112.181 156.584 112.547 156.584H131.009C131.374 156.583 131.724 156.437 131.981 156.179C132.239 155.921 132.384 155.571 132.384 155.206V132.138C132.384 130.84 131.868 129.595 130.95 128.677C130.032 127.759 128.787 127.243 127.489 127.243Z" fill="white"/>
</mask>
<g mask="url(#mask3_1765_6763)">
<path opacity="0.3" d="M127.489 127.243H111.169C109.892 127.276 108.678 127.806 107.786 128.72C106.894 129.635 106.395 130.862 106.395 132.14C106.395 133.417 106.894 134.644 107.786 135.559C108.678 136.473 109.892 137.004 111.169 137.036V155.206C111.169 155.571 111.314 155.922 111.572 156.18C111.831 156.439 112.181 156.584 112.547 156.584H131.009C131.374 156.583 131.724 156.437 131.981 156.179C132.239 155.921 132.384 155.571 132.384 155.206V132.138C132.384 130.84 131.868 129.595 130.95 128.677C130.032 127.759 128.787 127.243 127.489 127.243Z" fill="white"/>
</g>
<path d="M127.489 127.245H111.169C109.892 127.277 108.678 127.808 107.786 128.722C106.894 129.637 106.395 130.864 106.395 132.142C106.395 133.419 106.894 134.646 107.786 135.561C108.678 136.475 109.892 137.006 111.169 137.038V155.208C111.169 155.573 111.314 155.924 111.572 156.182C111.831 156.441 112.181 156.586 112.546 156.586H131.009C131.374 156.585 131.724 156.439 131.981 156.181C132.239 155.923 132.384 155.573 132.384 155.208V132.14C132.384 130.842 131.868 129.597 130.95 128.679C130.032 127.761 128.787 127.245 127.489 127.245Z" stroke="#48535B" stroke-width="0.8" stroke-linecap="round" stroke-linejoin="round"/>
<path d="M111.169 127.245C109.892 127.277 108.678 127.808 107.786 128.722C106.894 129.637 106.395 130.864 106.395 132.142C106.395 133.419 106.894 134.646 107.786 135.561C108.678 136.475 109.892 137.006 111.169 137.038V155.208C111.169 155.573 111.314 155.924 111.572 156.182C111.831 156.441 112.181 156.586 112.546 156.586H114.689C115.054 156.586 115.405 156.441 115.663 156.182C115.921 155.924 116.067 155.573 116.067 155.208V132.14C116.066 130.841 115.549 129.596 114.631 128.679C113.712 127.761 112.467 127.245 111.169 127.245Z" fill="#ED8B00" stroke="#48535B" stroke-width="0.8" stroke-linecap="round" stroke-linejoin="round"/>
<path d="M111.169 127.245C109.892 127.277 108.678 127.808 107.786 128.722C106.894 129.637 106.395 130.864 106.395 132.142C106.395 133.419 106.894 134.646 107.786 135.561C108.678 136.475 109.892 137.006 111.169 137.038V155.208C111.169 155.573 111.314 155.924 111.572 156.182C111.831 156.441 112.181 156.586 112.546 156.586H114.689C115.054 156.586 115.405 156.441 115.663 156.182C115.921 155.924 116.067 155.573 116.067 155.208V132.14C116.066 130.841 115.549 129.596 114.631 128.679C113.712 127.761 112.467 127.245 111.169 127.245Z" fill="#ED8B00"/>
<mask id="mask4_1765_6763" style="mask-type:luminance" maskUnits="userSpaceOnUse" x="106" y="127" width="11" height="30">
<path d="M111.169 127.243C109.892 127.276 108.678 127.806 107.786 128.72C106.894 129.635 106.395 130.862 106.395 132.14C106.395 133.417 106.894 134.644 107.786 135.559C108.678 136.473 109.892 137.004 111.169 137.036V155.206C111.169 155.571 111.314 155.922 111.572 156.18C111.831 156.439 112.181 156.584 112.547 156.584H114.689C115.054 156.584 115.405 156.439 115.663 156.18C115.922 155.922 116.067 155.571 116.067 155.206V132.138C116.066 130.84 115.55 129.595 114.631 128.677C113.713 127.759 112.467 127.243 111.169 127.243Z" fill="white"/>
</mask>
<g mask="url(#mask4_1765_6763)">
<path opacity="0.6" d="M111.169 127.243C109.892 127.276 108.678 127.806 107.786 128.72C106.894 129.635 106.395 130.862 106.395 132.14C106.395 133.417 106.894 134.644 107.786 135.559C108.678 136.473 109.892 137.004 111.169 137.036V155.206C111.169 155.571 111.314 155.922 111.572 156.18C111.831 156.439 112.181 156.584 112.547 156.584H114.689C115.054 156.584 115.405 156.439 115.663 156.18C115.922 155.922 116.067 155.571 116.067 155.206V132.138C116.066 130.84 115.55 129.595 114.631 128.677C113.713 127.759 112.467 127.243 111.169 127.243Z" fill="white"/>
</g>
<path d="M111.169 127.245C109.892 127.277 108.678 127.808 107.786 128.722C106.894 129.637 106.395 130.864 106.395 132.142C106.395 133.419 106.894 134.646 107.786 135.561C108.678 136.475 109.892 137.006 111.169 137.038V155.208C111.169 155.573 111.314 155.924 111.572 156.182C111.831 156.441 112.181 156.586 112.546 156.586H114.689C115.054 156.586 115.405 156.441 115.663 156.182C115.921 155.924 116.067 155.573 116.067 155.208V132.14C116.066 130.841 115.549 129.596 114.631 128.679C113.712 127.761 112.467 127.245 111.169 127.245Z" stroke="#48535B" stroke-width="0.8" stroke-linecap="round" stroke-linejoin="round"/>
<path d="M119.106 148.992V154.4C119.106 154.984 119.338 155.544 119.751 155.957C120.164 156.37 120.724 156.602 121.308 156.602H151.822C152.406 156.602 152.966 156.37 153.379 155.957C153.792 155.544 154.024 154.984 154.024 154.4V144.962C154.024 144.739 153.99 144.518 153.923 144.305C153.989 144.118 154.023 143.921 154.024 143.723V141.836C154.024 141.607 153.979 141.38 153.891 141.169C153.804 140.957 153.675 140.765 153.513 140.603C153.351 140.441 153.159 140.313 152.948 140.225C152.736 140.138 152.51 140.093 152.281 140.093H117.807C117.345 140.094 116.902 140.278 116.576 140.604C116.25 140.931 116.067 141.374 116.067 141.836V143.723C116.067 144.185 116.25 144.627 116.576 144.954C116.902 145.281 117.345 145.465 117.807 145.466H119.106V147.271" fill="#ED8B00"/>
<mask id="mask5_1765_6763" style="mask-type:luminance" maskUnits="userSpaceOnUse" x="116" y="140" width="39" height="17">
<path d="M119.106 148.991V154.399C119.106 154.983 119.338 155.543 119.751 155.956C120.164 156.369 120.724 156.601 121.308 156.601H151.822C152.406 156.601 152.967 156.369 153.38 155.956C153.792 155.543 154.024 154.983 154.024 154.399V144.961C154.025 144.738 153.991 144.517 153.924 144.304C153.99 144.117 154.024 143.92 154.024 143.722V141.835C154.024 141.606 153.979 141.379 153.892 141.168C153.804 140.956 153.676 140.764 153.514 140.602C153.352 140.44 153.16 140.312 152.949 140.224C152.737 140.137 152.511 140.092 152.282 140.092H117.807C117.346 140.093 116.903 140.277 116.577 140.603C116.251 140.93 116.068 141.373 116.068 141.835V143.722C116.068 144.184 116.251 144.626 116.577 144.953C116.903 145.28 117.346 145.464 117.807 145.465H119.106V147.27" fill="white"/>
</mask>
<g mask="url(#mask5_1765_6763)">
<path opacity="0.3" d="M153.999 141.81C153.999 141.348 153.816 140.905 153.489 140.578C153.162 140.251 152.719 140.067 152.257 140.067H117.807C117.346 140.068 116.903 140.252 116.577 140.579C116.251 140.906 116.068 141.348 116.068 141.81V143.698C116.068 144.159 116.251 144.602 116.577 144.929C116.903 145.256 117.346 145.44 117.807 145.44H119.106V154.384C119.106 154.968 119.338 155.528 119.751 155.941C120.164 156.354 120.724 156.586 121.308 156.586H151.822C152.406 156.586 152.967 156.354 153.38 155.941C153.792 155.528 154.024 154.968 154.024 154.384V144.946C154.025 144.723 153.991 144.502 153.924 144.289C153.99 144.102 154.024 143.905 154.024 143.707L153.999 141.81Z" fill="white"/>
</g>
<path d="M119.106 148.992V154.4C119.106 154.984 119.338 155.544 119.751 155.957C120.164 156.37 120.724 156.602 121.308 156.602H151.822C152.406 156.602 152.966 156.37 153.379 155.957C153.792 155.544 154.024 154.984 154.024 154.4V144.962C154.024 144.739 153.99 144.518 153.923 144.305C153.989 144.118 154.023 143.921 154.024 143.723V141.836C154.024 141.607 153.979 141.38 153.891 141.169C153.804 140.957 153.675 140.765 153.513 140.603C153.351 140.441 153.159 140.313 152.948 140.225C152.736 140.138 152.51 140.093 152.281 140.093H117.807C117.345 140.094 116.902 140.278 116.576 140.604C116.25 140.931 116.067 141.374 116.067 141.836V143.723C116.067 144.185 116.25 144.627 116.576 144.954C116.902 145.281 117.345 145.465 117.807 145.466H119.106V147.271" stroke="#48535B" stroke-width="0.8" stroke-linecap="round" stroke-linejoin="round"/>
<path d="M175.949 132.14H180.108C180.108 133.438 179.593 134.683 178.675 135.602C177.757 136.52 176.512 137.037 175.213 137.038H158.893C160.192 137.038 161.438 136.522 162.356 135.603C163.275 134.684 163.791 133.439 163.791 132.14H174.062" fill="#ED8B00"/>
<mask id="mask6_1765_6763" style="mask-type:luminance" maskUnits="userSpaceOnUse" x="158" y="132" width="23" height="6">
<path d="M175.95 132.141H180.108C180.108 133.439 179.593 134.684 178.675 135.603C177.757 136.521 176.512 137.038 175.214 137.039H158.893C160.192 137.039 161.438 136.523 162.357 135.604C163.275 134.685 163.791 133.44 163.791 132.141H174.062" fill="white"/>
</mask>
<g mask="url(#mask6_1765_6763)">
<g opacity="0.3">
<path d="M163.791 132.143H180.108C180.108 133.441 179.593 134.686 178.675 135.605C177.757 136.523 176.512 137.04 175.214 137.041H158.893C160.192 137.041 161.438 136.525 162.357 135.606C163.275 134.687 163.791 133.442 163.791 132.143Z" fill="white"/>
</g>
</g>
<path d="M175.949 132.14H180.108C180.108 133.438 179.593 134.683 178.675 135.602C177.757 136.52 176.512 137.037 175.213 137.038H158.893C160.192 137.038 161.438 136.522 162.356 135.603C163.275 134.684 163.791 133.439 163.791 132.14H174.062" stroke="#48535B" stroke-width="0.8" stroke-linecap="round" stroke-linejoin="round"/>
<path d="M81.2181 63.9814H74.3697C73.1091 63.9814 71.9001 64.4822 71.0087 65.3736C70.1172 66.265 69.6165 67.4741 69.6165 68.7347V144.479C69.6165 145.739 70.1172 146.948 71.0087 147.84C71.9001 148.731 73.1091 149.232 74.3697 149.232H81.2181V63.9814Z" fill="#B5C2C9" stroke="#48535B" stroke-width="0.8" stroke-linecap="round" stroke-linejoin="round"/>
<path d="M70.8839 76.8076H70.0031C69.5167 76.8076 69.1223 77.202 69.1223 77.6884V83.2659C69.1223 83.7523 69.5167 84.1467 70.0031 84.1467H70.8839C71.3704 84.1467 71.7648 83.7523 71.7648 83.2659V77.6884C71.7648 77.202 71.3704 76.8076 70.8839 76.8076Z" fill="#48535B" stroke="#48535B" stroke-width="0.8" stroke-linecap="round" stroke-linejoin="round"/>
<path d="M70.8839 77.6884C70.8839 77.4548 70.7911 77.2308 70.626 77.0656C70.4608 76.9004 70.2367 76.8076 70.0031 76.8076C69.7695 76.8076 69.5455 76.9004 69.3803 77.0656C69.2151 77.2308 69.1223 77.4548 69.1223 77.6884V83.2659C69.1223 83.4995 69.2151 83.7235 69.3803 83.8887C69.5455 84.0539 69.7695 84.1467 70.0031 84.1467C70.2367 84.1467 70.4608 84.0539 70.626 83.8887C70.7911 83.7235 70.8839 83.4995 70.8839 83.2659V77.6884Z" fill="#ED8B00" stroke="#48535B" stroke-width="0.8" stroke-linecap="round" stroke-linejoin="round"/>
<path d="M70.8839 85.9082H70.0031C69.5167 85.9082 69.1223 86.3026 69.1223 86.789V88.3399C69.1223 88.8263 69.5167 89.2207 70.0031 89.2207H70.8839C71.3704 89.2207 71.7648 88.8263 71.7648 88.3399V86.789C71.7648 86.3026 71.3704 85.9082 70.8839 85.9082Z" fill="#48535B" stroke="#48535B" stroke-width="0.8" stroke-linecap="round" stroke-linejoin="round"/>
<path d="M70.8839 86.789C70.8839 86.5554 70.7911 86.3314 70.626 86.1662C70.4608 86.001 70.2367 85.9082 70.0031 85.9082C69.7695 85.9082 69.5455 86.001 69.3803 86.1662C69.2151 86.3314 69.1223 86.5554 69.1223 86.789V88.3399C69.1223 88.5735 69.2151 88.7975 69.3803 88.9627C69.5455 89.1279 69.7695 89.2207 70.0031 89.2207C70.2367 89.2207 70.4608 89.1279 70.626 88.9627C70.7911 88.7975 70.8839 88.5735 70.8839 88.3399V86.789Z" fill="#ED8B00" stroke="#48535B" stroke-width="0.8" stroke-linecap="round" stroke-linejoin="round"/>
<path d="M109.219 63.9814H77.5155C74.8903 63.9814 72.7622 66.1096 72.7622 68.7347V144.479C72.7622 147.104 74.8903 149.232 77.5155 149.232H109.219C111.844 149.232 113.972 147.104 113.972 144.479V68.7347C113.972 66.1096 111.844 63.9814 109.219 63.9814Z" fill="#ED8B00"/>
<mask id="mask7_1765_6763" style="mask-type:luminance" maskUnits="userSpaceOnUse" x="72" y="63" width="42" height="87">
<path d="M109.218 63.9824H77.5145C74.8893 63.9824 72.7612 66.1105 72.7612 68.7357V144.48C72.7612 147.105 74.8893 149.233 77.5145 149.233H109.218C111.843 149.233 113.971 147.105 113.971 144.48V68.7357C113.971 66.1105 111.843 63.9824 109.218 63.9824Z" fill="white"/>
</mask>
<g mask="url(#mask7_1765_6763)">
<path opacity="0.5" d="M109.217 63.9824H77.5142C74.8891 63.9824 72.761 66.1105 72.761 68.7357V144.48C72.761 147.105 74.8891 149.233 77.5142 149.233H109.217C111.842 149.233 113.971 147.105 113.971 144.48V68.7357C113.971 66.1105 111.842 63.9824 109.217 63.9824Z" fill="white"/>
<path opacity="0.3" d="M66.9132 144.83H50.2061L106.865 66.8145H123.572L66.9132 144.83Z" fill="white"/>
<path opacity="0.3" d="M73.8845 144.83H70.1914L126.853 66.8145H130.546L73.8845 144.83Z" fill="white"/>
</g>
<path d="M109.219 63.9814H77.5155C74.8903 63.9814 72.7622 66.1096 72.7622 68.7347V144.479C72.7622 147.104 74.8903 149.232 77.5155 149.232H109.219C111.844 149.232 113.972 147.104 113.972 144.479V68.7347C113.972 66.1096 111.844 63.9814 109.219 63.9814Z" stroke="#48535B" stroke-width="0.8" stroke-linecap="round" stroke-linejoin="round"/>
<path d="M109.215 63.9814H77.5155C76.2548 63.9814 75.0458 64.4822 74.1544 65.3736C73.263 66.2651 72.7622 67.4741 72.7622 68.7347V69.6438H113.972V68.7347C113.971 67.4738 113.469 66.2648 112.578 65.3735C111.686 64.4821 110.476 63.9814 109.215 63.9814Z" fill="#48535B" stroke="#48535B" stroke-width="0.8" stroke-linecap="round" stroke-linejoin="round"/>
<path d="M94.5179 67.6055C94.6296 67.6197 94.7429 67.6099 94.8505 67.5769C94.958 67.5438 95.0573 67.4882 95.1417 67.4138C95.2261 67.3395 95.2938 67.2479 95.3401 67.1454C95.3864 67.0429 95.4103 66.9316 95.4103 66.8191C95.4103 66.7066 95.3864 66.5954 95.3401 66.4928C95.2938 66.3903 95.2261 66.2987 95.1417 66.2244C95.0573 66.15 94.958 66.0944 94.8505 66.0613C94.7429 66.0283 94.6296 66.0185 94.5179 66.0327H89.4847C89.3731 66.0185 89.2597 66.0283 89.1522 66.0613C89.0446 66.0944 88.9453 66.15 88.8609 66.2244C88.7765 66.2987 88.7089 66.3903 88.6625 66.4928C88.6162 66.5954 88.5923 66.7066 88.5923 66.8191C88.5923 66.9316 88.6162 67.0429 88.6625 67.1454C88.7089 67.2479 88.7765 67.3395 88.8609 67.4138C88.9453 67.4882 89.0446 67.5438 89.1522 67.5769C89.2597 67.6099 89.3731 67.6197 89.4847 67.6055H94.5179Z" fill="#B5C2C9" stroke="#48535B" stroke-width="0.8" stroke-linecap="round" stroke-linejoin="round"/>
<path d="M97.2361 67.606C97.6739 67.606 98.0288 67.2511 98.0288 66.8132C98.0288 66.3754 97.6739 66.0205 97.2361 66.0205C96.7983 66.0205 96.4434 66.3754 96.4434 66.8132C96.4434 67.2511 96.7983 67.606 97.2361 67.606Z" fill="#B5C2C9" stroke="#48535B" stroke-width="0.8" stroke-linecap="round" stroke-linejoin="round"/>
<path d="M72.7622 141.368V144.479C72.7622 145.74 73.263 146.949 74.1544 147.84C75.0458 148.732 76.2548 149.233 77.5155 149.233H109.215C110.476 149.233 111.686 148.732 112.578 147.841C113.469 146.949 113.971 145.74 113.972 144.479V141.368H72.7622Z" fill="#48535B" stroke="#48535B" stroke-width="0.8" stroke-linecap="round" stroke-linejoin="round"/>
<path d="M93.3665 147.674C94.6782 147.674 95.7416 146.611 95.7416 145.299C95.7416 143.987 94.6782 142.924 93.3665 142.924C92.0548 142.924 90.9915 143.987 90.9915 145.299C90.9915 146.611 92.0548 147.674 93.3665 147.674Z" fill="#B5C2C9" stroke="#48535B" stroke-width="0.8" stroke-linecap="round" stroke-linejoin="round"/>
<path d="M92.7377 95.8992C98.881 95.8992 103.861 90.9191 103.861 84.7758C103.861 78.6325 98.881 73.6523 92.7377 73.6523C86.5944 73.6523 81.6143 78.6325 81.6143 84.7758C81.6143 90.9191 86.5944 95.8992 92.7377 95.8992Z" fill="#B5C2C9"/>
<path d="M93.3666 95.2703C99.5099 95.2703 104.49 90.2902 104.49 84.1469C104.49 78.0036 99.5099 73.0234 93.3666 73.0234C87.2233 73.0234 82.2432 78.0036 82.2432 84.1469C82.2432 90.2902 87.2233 95.2703 93.3666 95.2703Z" fill="white"/>
<mask id="mask8_1765_6763" style="mask-type:luminance" maskUnits="userSpaceOnUse" x="82" y="73" width="23" height="23">
<path d="M93.3666 95.2694C99.5099 95.2694 104.49 90.2892 104.49 84.1459C104.49 78.0026 99.5099 73.0225 93.3666 73.0225C87.2233 73.0225 82.2432 78.0026 82.2432 84.1459C82.2432 90.2892 87.2233 95.2694 93.3666 95.2694Z" fill="white"/>
</mask>
<g mask="url(#mask8_1765_6763)">
<path d="M86.1721 96.7641L85.9865 95.2981C85.76 93.5208 90.0288 91.2936 90.0288 91.2936L94.2662 91.9384L96.5311 90.3467C101.055 91.2904 100.404 92.1964 100.511 93.4547C100.57 94.1468 100.696 94.9206 100.696 94.9206L86.1721 96.7641Z" fill="#ED8B00" stroke="#48535B" stroke-width="0.8" stroke-linecap="round" stroke-linejoin="round"/>
<path d="M91.2181 85.2471C91.2181 85.2471 92.1618 87.3736 90.7021 90.8434L94.26 91.8469L95.6976 90.2079L94.8514 86.4141L91.2181 85.2471Z" fill="white"/>
<mask id="mask9_1765_6763" style="mask-type:luminance" maskUnits="userSpaceOnUse" x="90" y="85" width="6" height="7">
<path d="M91.2168 85.248C91.2168 85.248 92.1606 87.3746 90.7009 90.8444L94.2588 91.8479L95.6964 90.2089L94.8502 86.4151L91.2168 85.248Z" fill="white"/>
</mask>
<g mask="url(#mask9_1765_6763)">
<path d="M91.0667 85.5945C91.0667 85.5945 92.1205 89.5078 95.7853 89.3694C99.4501 89.231 92.2526 84.808 92.2526 84.808L91.3655 84.7451L91.0667 85.5945Z" fill="#48535B"/>
</g>
<path d="M91.2181 85.2471C91.2181 85.2471 92.1618 87.3736 90.7021 90.8434L94.26 91.8469L95.6976 90.2079L94.8514 86.4141L91.2181 85.2471Z" stroke="#48535B" stroke-width="0.8" stroke-linecap="round" stroke-linejoin="round"/>
<path d="M91.2184 85.2473C91.2184 85.2473 89.7305 85.0963 89.1737 80.4815C88.7207 76.738 90.9919 74.2182 93.9867 74.2623C97.1954 74.3126 99.1804 77.9586 101.093 78.1819C101.093 78.1819 99.2055 78.9872 98.4757 78.5122C98.4757 78.5122 99.9731 79.7705 98.6236 80.3997C97.274 81.0288 91.2184 85.2473 91.2184 85.2473Z" fill="#48535B" stroke="#48535B" stroke-width="0.8" stroke-miterlimit="10"/>
<path d="M98.5191 79.4625L98.8903 82.3913C98.8903 82.3913 99.5195 84.3794 98.9721 85.9051C98.4248 87.4308 97.805 89.1515 95.9962 88.774C94.1874 88.3965 92.6586 88.3462 91.2335 85.2476L91.6236 83.8603C91.6236 83.8603 90.5918 83.8824 90.4188 82.0452C90.2458 80.2081 92.0326 81.3406 92.0326 81.3406C92.5202 80.4704 92.7718 79.4879 92.7624 78.4905C92.7372 76.8547 95.732 79.4531 97.4999 78.9844L96.1692 77.5625C96.1692 77.5625 98.1165 78.4779 98.5191 79.4625Z" fill="white" stroke="#48535B" stroke-width="0.8" stroke-linecap="round" stroke-linejoin="round"/>
<path d="M96.8799 82.4629L97.7828 83.7055C97.8149 83.7485 97.8364 83.7985 97.8455 83.8514C97.8546 83.9043 97.851 83.9586 97.835 84.0099C97.8191 84.0611 97.7912 84.1079 97.7537 84.1463C97.7161 84.1847 97.67 84.2137 97.6192 84.2308L96.7195 84.5454" stroke="#48535B" stroke-width="0.8" stroke-linecap="round" stroke-linejoin="round"/>
<path d="M94.3232 85.5244C94.3232 85.5244 95.1474 86.27 96.7298 85.839" stroke="#48535B" stroke-width="0.8" stroke-linecap="round" stroke-linejoin="round"/>
<path d="M94.7982 82.329C94.7982 82.6436 94.7038 82.9047 94.5654 82.9079C94.427 82.911 94.3106 82.6594 94.3011 82.3448C94.2917 82.0302 94.3955 81.7691 94.5308 81.7628C94.666 81.7565 94.7887 82.0113 94.7982 82.329Z" fill="#48535B"/>
<path d="M97.8331 82.2272C97.8331 82.5418 97.7387 82.8029 97.6003 82.806C97.4619 82.8091 97.3455 82.5575 97.3361 82.2429C97.3266 81.9283 97.4273 81.6672 97.5657 81.6641C97.7041 81.6609 97.8237 81.9126 97.8331 82.2272Z" fill="#48535B"/>
<path d="M93.7532 81.5982C93.7532 81.5982 94.3509 80.5664 95.6752 81.0665" stroke="#48535B" stroke-width="0.8" stroke-linecap="round" stroke-linejoin="round"/>
<path d="M97.261 81.0171C97.261 81.0171 97.9436 80.4131 98.5476 81.3537" stroke="#48535B" stroke-width="0.8" stroke-linecap="round" stroke-linejoin="round"/>
<path d="M97.667 77.1406C97.8805 77.3178 98.1129 77.471 98.3599 77.5973" stroke="#768692" stroke-width="0.8" stroke-linecap="round" stroke-linejoin="round"/>
<path d="M90.8687 79.95C90.8687 79.95 90.5289 76.6123 92.775 75.5113C94.436 74.6966 96.207 76.0209 97.3741 76.9175" stroke="#768692" stroke-width="0.8" stroke-linecap="round" stroke-linejoin="round"/>
<path d="M93.6213 76.7451C94.1687 76.7451 94.9205 77.0911 95.9209 78.2708" stroke="#768692" stroke-width="0.8" stroke-linecap="round" stroke-linejoin="round"/>
<path d="M92.4514 77.5845C92.551 77.3647 92.6997 77.1708 92.8861 77.0176" stroke="#768692" stroke-width="0.8" stroke-linecap="round" stroke-linejoin="round"/>
<path d="M89.3589 91.529L90.4442 90.5098L94.1342 91.5605L95.8329 89.8271L97.0188 90.2518L95.8895 92.7055L94.2663 92.1204L93.0929 93.4228L89.3589 91.529Z" fill="#ED8B00"/>
<mask id="mask10_1765_6763" style="mask-type:luminance" maskUnits="userSpaceOnUse" x="89" y="89" width="9" height="5">
<path d="M89.3594 91.531L90.4447 90.5117L94.1347 91.5624L95.8334 89.8291L97.0193 90.2538L95.89 92.7075L94.2668 92.1224L93.0934 93.4247L89.3594 91.531Z" fill="white"/>
</mask>
<g mask="url(#mask10_1765_6763)">
<path opacity="0.5" d="M89.3594 91.531L90.4447 90.5117L94.1347 91.5624L95.8334 89.8291L97.0193 90.2538L95.89 92.7075L94.2668 92.1224L93.0934 93.4247L89.3594 91.531Z" fill="white"/>
</g>
<path d="M89.3589 91.529L90.4442 90.5098L94.1342 91.5605L95.8329 89.8271L97.0188 90.2518L95.8895 92.7055L94.2663 92.1204L93.0929 93.4228L89.3589 91.529Z" stroke="#48535B" stroke-width="0.8" stroke-linecap="round" stroke-linejoin="round"/>
</g>
<path d="M93.3666 95.2703C99.5099 95.2703 104.49 90.2902 104.49 84.1469C104.49 78.0036 99.5099 73.0234 93.3666 73.0234C87.2233 73.0234 82.2432 78.0036 82.2432 84.1469C82.2432 90.2902 87.2233 95.2703 93.3666 95.2703Z" stroke="#48535B" stroke-width="0.8" stroke-linecap="round" stroke-linejoin="round"/>
<path d="M101.338 89.2197H97.7583C96.7888 89.2197 96.0029 90.0056 96.0029 90.9751V94.555C96.0029 95.5244 96.7888 96.3103 97.7583 96.3103H101.338C102.308 96.3103 103.093 95.5244 103.093 94.555V90.9751C103.093 90.0056 102.308 89.2197 101.338 89.2197Z" fill="#ED8B00" stroke="#48535B" stroke-width="0.8" stroke-linecap="round" stroke-linejoin="round"/>
<path d="M100.498 91.2648C100.449 91.1694 100.374 91.0896 100.282 91.0341C100.189 90.9786 100.084 90.9496 99.9763 90.9502H99.1238C99.0162 90.9496 98.9106 90.9786 98.8185 91.0341C98.7263 91.0896 98.6513 91.1694 98.6016 91.2648" stroke="#48535B" stroke-width="0.8" stroke-linecap="round" stroke-linejoin="round"/>
<path d="M98.038 91.4414C97.8837 91.4414 97.7356 91.5027 97.6265 91.6119C97.5174 91.721 97.4561 91.869 97.4561 92.0234V94.0084C97.4561 94.1627 97.5174 94.3107 97.6265 94.4199C97.7356 94.529 97.8837 94.5903 98.038 94.5903H101.058C101.135 94.5907 101.211 94.576 101.282 94.5469C101.353 94.5179 101.417 94.4751 101.472 94.421C101.526 94.3669 101.569 94.3026 101.598 94.2318C101.628 94.161 101.643 94.0851 101.643 94.0084V92.0234C101.643 91.9467 101.628 91.8708 101.598 91.7999C101.569 91.7291 101.526 91.6648 101.472 91.6108C101.417 91.5567 101.353 91.5139 101.282 91.4848C101.211 91.4558 101.135 91.441 101.058 91.4414" stroke="#48535B" stroke-width="0.8" stroke-linecap="round" stroke-linejoin="round"/>
<path d="M99.5481 92.1963C99.3856 92.1963 99.2267 92.2445 99.0916 92.3349C98.9565 92.4253 98.8513 92.5537 98.7892 92.7039C98.7272 92.8541 98.7111 93.0193 98.7431 93.1787C98.775 93.3381 98.8535 93.4843 98.9686 93.599C99.0838 93.7137 99.2304 93.7917 99.3898 93.823C99.5493 93.8543 99.7145 93.8376 99.8645 93.775C100.014 93.7124 100.142 93.6066 100.232 93.4712C100.322 93.3358 100.37 93.1767 100.369 93.0142C100.37 92.9064 100.349 92.7996 100.307 92.7C100.266 92.6004 100.206 92.5099 100.129 92.4338C100.053 92.3577 99.9623 92.2976 99.8625 92.2568C99.7628 92.216 99.6559 92.1955 99.5481 92.1963Z" stroke="#48535B" stroke-width="0.8" stroke-linecap="round" stroke-linejoin="round"/>
<path d="M107.167 131.79H78.9372C77.3945 131.79 76.1438 133.041 76.1438 134.583V137.176C76.1438 138.718 77.3945 139.969 78.9372 139.969H107.167C108.71 139.969 109.961 138.718 109.961 137.176V134.583C109.961 133.041 108.71 131.79 107.167 131.79Z" fill="#B5C2C9"/>
<path d="M107.482 130.847H79.2519C77.7092 130.847 76.4585 132.097 76.4585 133.64V136.232C76.4585 137.775 77.7092 139.026 79.2519 139.026H107.482C109.025 139.026 110.276 137.775 110.276 136.232V133.64C110.276 132.097 109.025 130.847 107.482 130.847Z" fill="#ED8B00" stroke="#48535B" stroke-width="0.8" stroke-linecap="round" stroke-linejoin="round"/>
<path d="M80.0002 134.002C79.9996 133.83 80.0499 133.663 80.1447 133.52C80.2395 133.377 80.3746 133.266 80.5328 133.2C80.691 133.134 80.8652 133.117 81.0333 133.15C81.2014 133.183 81.3558 133.266 81.477 133.387C81.5982 133.508 81.6806 133.663 81.7139 133.831C81.7472 133.999 81.7298 134.173 81.6639 134.331C81.5981 134.489 81.4867 134.624 81.344 134.719C81.2012 134.814 81.0335 134.864 80.8622 134.864M80.8622 132.07C80.3499 132.07 79.8586 132.274 79.4964 132.636C79.1342 132.998 78.9307 133.49 78.9307 134.002C78.9307 134.754 79.8744 136.286 80.4532 137.129C80.498 137.196 80.5588 137.252 80.6301 137.29C80.7015 137.328 80.7812 137.348 80.8622 137.348C80.9431 137.348 81.0229 137.328 81.0942 137.29C81.1656 137.252 81.2264 137.196 81.2711 137.129C81.8468 136.286 82.7905 134.76 82.7905 134.002C82.7905 133.49 82.5875 132.999 82.2259 132.637C81.8644 132.275 81.3739 132.071 80.8622 132.07Z" stroke="#48535B" stroke-width="0.8" stroke-linecap="round" stroke-linejoin="round"/>
<path d="M103.713 132.646H87.7671C87.6518 132.646 87.5377 132.668 87.4312 132.712C87.3247 132.756 87.228 132.821 87.1465 132.903C87.065 132.984 87.0003 133.081 86.9562 133.187C86.9121 133.294 86.8894 133.408 86.8894 133.523C86.8894 133.638 86.9121 133.753 86.9562 133.859C87.0003 133.966 87.065 134.062 87.1465 134.144C87.228 134.225 87.3247 134.29 87.4312 134.334C87.5377 134.378 87.6518 134.401 87.7671 134.401H103.713C103.946 134.401 104.169 134.308 104.334 134.144C104.498 133.979 104.591 133.756 104.591 133.523C104.591 133.29 104.498 133.067 104.334 132.903C104.169 132.738 103.946 132.646 103.713 132.646Z" fill="#868686" stroke="#48535B" stroke-width="0.8" stroke-linecap="round" stroke-linejoin="round"/>
<path d="M99.0698 135.468H87.7671C87.5343 135.468 87.3111 135.56 87.1465 135.725C86.9819 135.889 86.8894 136.113 86.8894 136.345C86.8894 136.578 86.9819 136.801 87.1465 136.966C87.3111 137.131 87.5343 137.223 87.7671 137.223H99.0698C99.3026 137.223 99.5258 137.131 99.6904 136.966C99.855 136.801 99.9475 136.578 99.9475 136.345C99.9475 136.113 99.855 135.889 99.6904 135.725C99.5258 135.56 99.3026 135.468 99.0698 135.468Z" fill="#B5C2C9" stroke="#48535B" stroke-width="0.8" stroke-linecap="round" stroke-linejoin="round"/>
<path d="M104.71 135.468H101.479C101.247 135.468 101.023 135.56 100.859 135.725C100.694 135.889 100.602 136.113 100.602 136.345C100.602 136.578 100.694 136.801 100.859 136.966C101.023 137.131 101.247 137.223 101.479 137.223H104.71C104.943 137.223 105.166 137.131 105.331 136.966C105.495 136.801 105.588 136.578 105.588 136.345C105.588 136.113 105.495 135.889 105.331 135.725C105.166 135.56 104.943 135.468 104.71 135.468Z" fill="#B5C2C9" stroke="#48535B" stroke-width="0.8" stroke-linecap="round" stroke-linejoin="round"/>
<path d="M111.571 121.569H83.3413C81.7985 121.569 80.5479 122.82 80.5479 124.363V126.955C80.5479 128.498 81.7985 129.748 83.3413 129.748H111.571C113.114 129.748 114.365 128.498 114.365 126.955V124.363C114.365 122.82 113.114 121.569 111.571 121.569Z" fill="#B5C2C9"/>
<path d="M111.886 120.625H83.656C82.1132 120.625 80.8625 121.876 80.8625 123.418V126.011C80.8625 127.553 82.1132 128.804 83.656 128.804H111.886C113.429 128.804 114.68 127.553 114.68 126.011V123.418C114.68 121.876 113.429 120.625 111.886 120.625Z" fill="#ED8B00" stroke="#48535B" stroke-width="0.8" stroke-linecap="round" stroke-linejoin="round"/>
<path d="M83.5898 125.596V126.002C83.5901 126.033 83.5987 126.063 83.6148 126.09C83.6308 126.116 83.6537 126.138 83.6811 126.153L85.1848 126.967C85.2097 126.981 85.2379 126.989 85.2665 126.989C85.2952 126.989 85.3234 126.981 85.3483 126.967L86.8552 126.153C86.8825 126.138 86.9054 126.116 86.9215 126.09C86.9375 126.063 86.9461 126.033 86.9464 126.002V125.596" stroke="#48535B" stroke-width="0.8" stroke-linecap="round" stroke-linejoin="round"/>
<path d="M87.6952 126.269V124.494L88.1261 124.262C88.1562 124.248 88.1818 124.226 88.1997 124.198C88.2176 124.17 88.2271 124.137 88.2271 124.104C88.2271 124.071 88.2176 124.039 88.1997 124.011C88.1818 123.983 88.1562 123.961 88.1261 123.947L85.3484 122.443C85.3234 122.429 85.2953 122.422 85.2666 122.422C85.238 122.422 85.2098 122.429 85.1848 122.443L82.4103 123.947C82.3801 123.961 82.3546 123.983 82.3367 124.011C82.3188 124.039 82.3093 124.071 82.3093 124.104C82.3093 124.137 82.3188 124.17 82.3367 124.198C82.3546 124.226 82.3801 124.248 82.4103 124.262L85.1848 125.762C85.2098 125.776 85.238 125.784 85.2666 125.784C85.2953 125.784 85.3234 125.776 85.3484 125.762L86.9465 124.9" stroke="#48535B" stroke-width="0.8" stroke-linecap="round" stroke-linejoin="round"/>
<path d="M108.118 122.424H92.1716C91.9388 122.424 91.7156 122.516 91.551 122.681C91.3864 122.845 91.2939 123.069 91.2939 123.302C91.2939 123.534 91.3864 123.758 91.551 123.922C91.7156 124.087 91.9388 124.179 92.1716 124.179H108.118C108.35 124.179 108.574 124.087 108.738 123.922C108.903 123.758 108.995 123.534 108.995 123.302C108.995 123.069 108.903 122.845 108.738 122.681C108.574 122.516 108.35 122.424 108.118 122.424Z" fill="#868686" stroke="#48535B" stroke-width="0.8" stroke-linecap="round" stroke-linejoin="round"/>
<path d="M100.643 125.246H92.1716C91.9388 125.246 91.7156 125.339 91.551 125.503C91.3864 125.668 91.2939 125.891 91.2939 126.124C91.2939 126.357 91.3864 126.58 91.551 126.744C91.7156 126.909 91.9388 127.001 92.1716 127.001H100.643C100.876 127.001 101.099 126.909 101.264 126.744C101.428 126.58 101.521 126.357 101.521 126.124C101.521 125.891 101.428 125.668 101.264 125.503C101.099 125.339 100.876 125.246 100.643 125.246Z" fill="#B5C2C9" stroke="#48535B" stroke-width="0.8" stroke-linecap="round" stroke-linejoin="round"/>
<path d="M106.355 125.246H103.125C102.892 125.246 102.669 125.339 102.504 125.503C102.34 125.668 102.247 125.891 102.247 126.124C102.247 126.357 102.34 126.58 102.504 126.744C102.669 126.909 102.892 127.001 103.125 127.001H106.355C106.588 127.001 106.811 126.909 106.976 126.744C107.141 126.58 107.233 126.357 107.233 126.124C107.233 125.891 107.141 125.668 106.976 125.503C106.811 125.339 106.588 125.246 106.355 125.246Z" fill="#B5C2C9" stroke="#48535B" stroke-width="0.8" stroke-linecap="round" stroke-linejoin="round"/>
<path d="M103.078 111.345H74.8479C73.3051 111.345 72.0544 112.595 72.0544 114.138V116.73C72.0544 118.273 73.3051 119.524 74.8479 119.524H103.078C104.621 119.524 105.871 118.273 105.871 116.73V114.138C105.871 112.595 104.621 111.345 103.078 111.345Z" fill="#B5C2C9"/>
<path d="M103.393 110.4H75.1626C73.6198 110.4 72.3691 111.651 72.3691 113.194V115.786C72.3691 117.329 73.6198 118.579 75.1626 118.579H103.393C104.935 118.579 106.186 117.329 106.186 115.786V113.194C106.186 111.651 104.935 110.4 103.393 110.4Z" fill="#ED8B00" stroke="#48535B" stroke-width="0.8" stroke-linecap="round" stroke-linejoin="round"/>
<path d="M76.9055 114.833H76.6412C76.4675 114.833 76.3267 114.974 76.3267 115.148V115.824C76.3267 115.998 76.4675 116.139 76.6412 116.139H76.9055C77.0792 116.139 77.2201 115.998 77.2201 115.824V115.148C77.2201 114.974 77.0792 114.833 76.9055 114.833Z" stroke="#48535B" stroke-width="0.8" stroke-linecap="round" stroke-linejoin="round"/>
<path d="M74.6311 115.745C74.6311 116.005 74.7342 116.253 74.9177 116.437C75.1011 116.62 75.35 116.723 75.6094 116.723H77.9405C78.1999 116.723 78.4488 116.62 78.6322 116.437C78.8157 116.253 78.9188 116.005 78.9188 115.745" stroke="#48535B" stroke-width="0.8" stroke-linecap="round" stroke-linejoin="round"/>
<path d="M75.2229 112.845H74.9083C74.7734 112.845 74.6443 112.899 74.5489 112.995C74.4535 113.09 74.3995 113.219 74.3987 113.354V114.37C74.3983 114.502 74.4238 114.632 74.4737 114.753C74.5236 114.874 74.597 114.985 74.6896 115.078C74.7823 115.17 74.8924 115.244 75.0136 115.295C75.1347 115.345 75.2647 115.371 75.3959 115.371H75.7105M77.8527 115.371H78.1516C78.4169 115.371 78.6713 115.265 78.8589 115.078C79.0465 114.89 79.1519 114.636 79.1519 114.37V113.37C79.1511 113.235 79.0972 113.106 79.0018 113.011C78.9064 112.915 78.7772 112.861 78.6423 112.86H78.3278M75.9496 112.86V112.741C75.9504 112.614 76.0015 112.492 76.0916 112.403C76.1818 112.313 76.3037 112.263 76.4309 112.263H77.1292C77.2547 112.265 77.3742 112.317 77.4624 112.406C77.5505 112.495 77.6003 112.615 77.6011 112.741V112.854" stroke="#48535B" stroke-width="0.8" stroke-linecap="round" stroke-linejoin="round"/>
<path d="M99.6241 112.199H83.6782C83.4454 112.199 83.2222 112.292 83.0576 112.456C82.893 112.621 82.8005 112.844 82.8005 113.077C82.8005 113.31 82.893 113.533 83.0576 113.697C83.2222 113.862 83.4454 113.955 83.6782 113.955H99.6241C99.8569 113.955 100.08 113.862 100.245 113.697C100.409 113.533 100.502 113.31 100.502 113.077C100.502 112.844 100.409 112.621 100.245 112.456C100.08 112.292 99.8569 112.199 99.6241 112.199Z" fill="#868686" stroke="#48535B" stroke-width="0.8" stroke-linecap="round" stroke-linejoin="round"/>
<path d="M96.8684 115.021H83.6782C83.4454 115.021 83.2222 115.114 83.0576 115.279C82.893 115.443 82.8005 115.666 82.8005 115.899C82.8005 116.132 82.893 116.355 83.0576 116.52C83.2222 116.684 83.4454 116.777 83.6782 116.777H96.8684C97.1012 116.777 97.3244 116.684 97.489 116.52C97.6536 116.355 97.7461 116.132 97.7461 115.899C97.7461 115.666 97.6536 115.443 97.489 115.279C97.3244 115.114 97.1012 115.021 96.8684 115.021Z" fill="#B5C2C9" stroke="#48535B" stroke-width="0.8" stroke-linecap="round" stroke-linejoin="round"/>
<path d="M134.743 157.26L134.642 159.858C134.642 159.858 131.704 161.818 130.42 162.243C129.791 162.45 128.083 162.67 128.083 163.447C128.083 164.225 130.285 164.338 131.477 164.338C132.106 164.338 133.704 164.278 135.686 164.256C137.473 164.237 139.055 163.992 139.055 163.136C139.022 161.978 138.697 160.848 138.112 159.849L138.486 157.26H134.743Z" fill="white" stroke="#48535B" stroke-width="0.8" stroke-linecap="round" stroke-linejoin="round"/>
<path d="M135.095 112.262C135.095 112.262 134.639 119.372 134.733 124.417C134.806 128.457 134.007 140.253 134.007 140.253L134.321 158.074L138.703 158.389C138.703 158.389 141.047 148.863 140.531 140.458C140.531 140.458 142.274 128.711 142.796 124.937C142.796 124.937 146.325 120.319 146.184 112.184L135.095 112.262Z" fill="#48535B"/>
<path d="M137.105 118.718C137.731 120.069 138.684 121.244 139.876 122.137" stroke="#768692" stroke-width="0.8" stroke-linecap="round" stroke-linejoin="round"/>
<path d="M128.09 163.444C128.09 164.221 130.292 164.338 131.484 164.338C132.113 164.338 133.711 164.278 135.693 164.256C137.48 164.237 139.062 163.992 139.062 163.136C139.029 161.978 138.704 160.848 138.118 159.849C137.275 160.163 136.958 161.311 136.958 161.311C136.958 161.311 134.718 161.664 135.306 160.874C135.894 160.085 134.636 159.858 134.636 159.858C134.636 159.858 131.698 161.818 130.414 162.243C129.798 162.444 128.09 162.67 128.09 163.444Z" fill="#ED8B00" stroke="#48535B" stroke-width="0.8" stroke-linecap="round" stroke-linejoin="round"/>
<path d="M134.007 157.005L134.095 158.499L138.911 158.911L139.323 157.408L134.007 157.005Z" fill="#B5C2C9" stroke="#48535B" stroke-width="0.8" stroke-linecap="round" stroke-linejoin="round"/>
<path d="M137.193 139.385C137.827 139.876 138.55 140.24 139.323 140.457C141.559 141.087 137.174 141.244 137.008 142.109" stroke="#768692" stroke-width="0.8" stroke-linecap="round" stroke-linejoin="round"/>
<path d="M136.104 138.256C136.254 138.474 136.424 138.678 136.612 138.864" stroke="#768692" stroke-width="0.8" stroke-linecap="round" stroke-linejoin="round"/>
<path d="M126.583 105.097L124.031 106.852C123.625 106.534 123.125 106.359 122.61 106.355C121.845 106.393 121.1 106.796 120.587 106.852C119.999 106.912 118.246 106.585 118.246 107.129C118.246 107.928 121.241 107.632 121.335 108.007C121.43 108.381 119.347 108.91 119.347 108.91L119.093 109.403L123.239 109.797C123.239 109.797 125.07 109.992 125.935 108.752L129.238 106.865L127.25 104.54L126.583 105.097Z" fill="white" stroke="#48535B" stroke-width="0.8" stroke-linecap="round" stroke-linejoin="round"/>
<path d="M135.054 88.2036C134.063 91.1009 133.031 99.9153 133.031 99.9153L125.887 105.068L128.089 107.821C128.089 107.821 135.192 104.266 136.325 103.391C137.457 102.517 138.797 93.1771 139.499 91.3116C140.2 89.4462 139.782 87.4643 137.986 86.7251C136.189 85.9858 135.324 87.4297 135.054 88.2036Z" fill="#ED8B00" stroke="#48535B" stroke-width="0.8" stroke-linecap="round" stroke-linejoin="round"/>
<path d="M125.218 104.757L126.683 103.515L129.634 107.541L128.008 108.526L125.218 104.757Z" fill="#ED8B00"/>
<mask id="mask11_1765_6763" style="mask-type:luminance" maskUnits="userSpaceOnUse" x="125" y="103" width="5" height="6">
<path d="M125.218 104.757L126.683 103.515L129.634 107.541L128.008 108.526L125.218 104.757Z" fill="white"/>
</mask>
<g mask="url(#mask11_1765_6763)">
<path opacity="0.5" d="M125.218 104.757L126.683 103.515L129.634 107.541L128.008 108.526L125.218 104.757Z" fill="white"/>
</g>
<path d="M125.218 104.757L126.683 103.515L129.634 107.541L128.008 108.526L125.218 104.757Z" stroke="#48535B" stroke-width="0.8" stroke-linecap="round" stroke-linejoin="round"/>
<path d="M139.807 83.6552L145.882 82.8311L140.968 85.9831L140.072 86.1278L139.807 83.6552Z" fill="#ED8B00" stroke="#48535B" stroke-width="0.8" stroke-linecap="round" stroke-linejoin="round"/>
<path d="M139.917 82.5002C139.917 82.5002 137.806 83.2835 137.338 81.8144C137.053 80.9212 136.894 79.9927 136.866 79.0556L136.089 78.6214C136.042 78.596 136.002 78.5611 135.969 78.519C135.937 78.4769 135.914 78.4285 135.902 78.377C135.889 78.3254 135.888 78.2719 135.897 78.2197C135.907 78.1676 135.927 78.118 135.957 78.0741L137.18 76.2653C137.18 76.2653 136.825 74.9566 137.023 74.2708C137.221 73.5851 138.168 71.4585 138.168 71.4585C138.168 71.4585 142.792 67.8818 145.158 71.6945C147.524 75.5071 144.403 80.5844 144.403 80.5844L145.158 84.3184L140.691 86.5205L139.917 82.5002Z" fill="white"/>
<mask id="mask12_1765_6763" style="mask-type:luminance" maskUnits="userSpaceOnUse" x="135" y="69" width="12" height="18">
<path d="M139.917 82.5002C139.917 82.5002 137.806 83.2835 137.338 81.8144C137.053 80.9212 136.894 79.9927 136.866 79.0556L136.089 78.6214C136.042 78.596 136.002 78.5611 135.969 78.519C135.937 78.4769 135.914 78.4285 135.902 78.377C135.889 78.3254 135.888 78.2719 135.897 78.2197C135.907 78.1676 135.927 78.118 135.957 78.0741L137.18 76.2653C137.18 76.2653 136.825 74.9566 137.023 74.2708C137.221 73.5851 138.168 71.4585 138.168 71.4585C138.168 71.4585 142.792 67.8818 145.158 71.6945C147.524 75.5071 144.403 80.5844 144.403 80.5844L145.158 84.3184L140.691 86.5205L139.917 82.5002Z" fill="white"/>
</mask>
<g mask="url(#mask12_1765_6763)">
<path d="M139.917 82.5007C140.646 82.1889 141.321 81.7642 141.917 81.2423C141.941 81.2207 141.972 81.2077 142.004 81.2054C142.037 81.2032 142.069 81.2118 142.095 81.2299C142.122 81.248 142.142 81.2745 142.152 81.3053C142.162 81.3361 142.161 81.3693 142.15 81.3996C141.714 82.5919 140.937 83.6299 139.917 84.385C137.925 85.8509 139.917 82.5007 139.917 82.5007Z" fill="#B5C2C9"/>
</g>
<path d="M139.917 82.5002C139.917 82.5002 137.806 83.2835 137.338 81.8144C137.053 80.9212 136.894 79.9927 136.866 79.0556L136.089 78.6214C136.042 78.596 136.002 78.5611 135.969 78.519C135.937 78.4769 135.914 78.4285 135.902 78.377C135.889 78.3254 135.888 78.2719 135.897 78.2197C135.907 78.1676 135.927 78.118 135.957 78.0741L137.18 76.2653C137.18 76.2653 136.825 74.9566 137.023 74.2708C137.221 73.5851 138.168 71.4585 138.168 71.4585C138.168 71.4585 142.792 67.8818 145.158 71.6945C147.524 75.5071 144.403 80.5844 144.403 80.5844L145.158 84.3184L140.691 86.5205L139.917 82.5002Z" stroke="#48535B" stroke-width="0.8" stroke-linecap="round" stroke-linejoin="round"/>
<path d="M137.397 74.4815C137.397 74.4815 138.152 73.8178 138.97 74.9188" stroke="#48535B" stroke-width="0.8" stroke-linecap="round" stroke-linejoin="round"/>
<path d="M138.156 79.5839C138.156 79.5839 138.709 79.9834 139.568 79.3008" stroke="#48535B" stroke-width="0.8" stroke-linecap="round" stroke-linejoin="round"/>
<path d="M138.348 75.869C138.348 76.0892 138.241 76.2654 138.112 76.2654C137.983 76.2654 137.873 76.0892 137.873 75.869C137.873 75.6488 137.98 75.4727 138.112 75.4727C138.244 75.4727 138.348 75.652 138.348 75.869Z" fill="#48535B"/>
<path d="M142.072 76.2655C142.072 76.2655 142.783 74.9191 143.693 75.8691C145.102 77.3445 143.013 78.4203 143.013 78.4203C143.232 79.2725 143.719 80.0315 144.403 80.5846C144.403 80.5846 144.979 79.9555 145.621 79.1659C146.263 78.3763 148.009 75.5073 146.763 72.2829C146.763 72.2829 146.892 69.3039 142.359 68.7093C137.826 68.1148 137.344 70.3766 135.882 70.1501C135.882 70.1501 136.995 71.1441 138.099 70.4269C137.999 70.6896 137.825 70.9181 137.599 71.0853C137.372 71.2525 137.103 71.3515 136.822 71.3706C136.822 71.3706 138.191 72.5409 139.568 72.2357C140.946 71.9306 140.358 74.1138 142.072 76.2655Z" fill="#48535B" stroke="#48535B" stroke-width="0.8" stroke-miterlimit="10"/>
<path d="M145.621 71.6758C145.76 71.9395 145.865 72.2195 145.935 72.5094" stroke="#768692" stroke-width="0.8" stroke-linecap="round" stroke-linejoin="round"/>
<path d="M139.204 69.622C139.204 69.622 143.293 68.9929 145.146 71.0124" stroke="#768692" stroke-width="0.8" stroke-linecap="round" stroke-linejoin="round"/>
<path d="M139.414 71.1191C139.162 71.1537 138.901 71.2041 138.627 71.2638" stroke="#768692" stroke-width="0.8" stroke-linecap="round" stroke-linejoin="round"/>
<path d="M145.158 73.1048C145.158 73.1048 144.041 70.8556 140.408 71.016" stroke="#768692" stroke-width="0.8" stroke-linecap="round" stroke-linejoin="round"/>
<path d="M145.049 78.8945C144.936 79.093 144.813 79.2945 144.677 79.4993" stroke="#768692" stroke-width="0.8" stroke-linecap="round" stroke-linejoin="round"/>
<path d="M146.061 74.1201C146.276 75.5188 146.045 76.9497 145.4 78.2096" stroke="#768692" stroke-width="0.8" stroke-linecap="round" stroke-linejoin="round"/>
<path d="M147.344 157.889L147.561 159.858C147.561 159.858 144.623 161.818 143.34 162.242C142.711 162.45 140.999 162.67 140.999 163.447C140.999 164.224 143.201 164.337 144.397 164.337C145.026 164.337 146.621 164.278 148.603 164.256C150.393 164.237 151.972 163.991 151.972 163.136C151.938 161.978 151.614 160.847 151.028 159.848L150.912 157.407L147.344 157.889Z" fill="white" stroke="#48535B" stroke-width="0.8" stroke-linecap="round" stroke-linejoin="round"/>
<path d="M149.481 161.39C148.537 161.39 148.185 161.113 148.185 161.113C148.971 160.447 147.574 159.855 147.574 159.855C147.574 159.855 144.636 161.815 143.353 162.24C142.724 162.447 141.012 162.667 141.012 163.441C141.012 164.215 143.214 164.335 144.41 164.335C145.039 164.335 146.634 164.275 148.616 164.253C150.405 164.234 151.985 163.989 151.985 163.133C151.951 161.975 151.627 160.845 151.041 159.846C149.981 160.277 150.424 161.39 149.481 161.39Z" fill="#ED8B00" stroke="#48535B" stroke-width="0.8" stroke-linecap="round" stroke-linejoin="round"/>
<path d="M139.921 112.303H149.673C149.673 112.303 150.843 118.138 150.497 123.942C150.151 129.746 150.645 139.775 150.645 139.775C150.645 139.775 151.846 144.887 151.198 158.382L147.184 158.697C147.184 158.697 144.325 145.365 143.752 140.137C143.412 137.016 142.617 128.812 141.821 125.767C140.987 122.633 140.204 121.447 139.921 112.303Z" fill="#48535B"/>
<path d="M149.889 156.184C149.889 156.58 149.915 156.989 149.927 157.407" stroke="#768692" stroke-width="0.8" stroke-linecap="round" stroke-linejoin="round"/>
<path d="M147.932 129.394C148.083 132.967 148.175 137.488 148.458 140.036C148.901 144.009 149.502 145.928 149.842 154.821" stroke="#768692" stroke-width="0.8" stroke-linecap="round" stroke-linejoin="round"/>
<path d="M144.579 116.516C145.037 117.745 145.933 118.763 147.096 119.372C147.096 119.372 147.41 122.518 147.725 125.871C147.775 126.396 147.816 127.013 147.854 127.699" stroke="#768692" stroke-width="0.8" stroke-linecap="round" stroke-linejoin="round"/>
<path d="M143.988 114.186C144.039 114.69 144.137 115.188 144.281 115.673" stroke="#768692" stroke-width="0.8" stroke-linecap="round" stroke-linejoin="round"/>
<path d="M140.014 115.339C140 115.016 139.984 114.676 139.967 114.319" stroke="#768692" stroke-width="0.8" stroke-linecap="round" stroke-linejoin="round"/>
<path d="M140.77 122.118C140.388 120.273 140.158 118.399 140.081 116.516" stroke="#768692" stroke-width="0.8" stroke-linecap="round" stroke-linejoin="round"/>
<path d="M142.21 127.709C142.075 126.951 141.943 126.287 141.808 125.774C141.622 125.072 141.44 124.185 141.267 123.619" stroke="#768692" stroke-width="0.8" stroke-linecap="round" stroke-linejoin="round"/>
<path d="M146.498 157.691L146.825 159.154L151.645 158.779L151.802 157.313L146.498 157.691Z" fill="#B5C2C9" stroke="#48535B" stroke-width="0.8" stroke-linecap="round" stroke-linejoin="round"/>
<path d="M150.11 99.4654C150.211 93.0858 152.416 86.1084 152.416 86.1084C152.416 86.1084 150.321 83.7711 145.954 83.3496L141.088 86.2626L140.065 86.1273L139.656 84.1612C136.866 85.2465 135.051 87.178 134.821 89.1378C134.475 92.0602 135.347 100.865 135.032 106.54C134.843 109.922 134.617 113.461 134.617 113.461L138.537 114.31L139.241 113.348L140.411 114.31L150.66 113.269C150.66 113.269 150.015 105.845 150.11 99.4654Z" fill="#ED8B00" stroke="#48535B" stroke-width="0.8" stroke-linecap="round" stroke-linejoin="round"/>
<path d="M139.92 83.4919L140.512 85.7946L145.891 82.6709L147.2 83.3535L142.997 87.4399L140.449 86.213L138.643 87.1788L138.838 84.1777L139.92 83.4919Z" fill="#ED8B00"/>
<mask id="mask13_1765_6763" style="mask-type:luminance" maskUnits="userSpaceOnUse" x="138" y="82" width="10" height="6">
<path d="M139.92 83.491L140.512 85.7937L145.891 82.6699L147.2 83.3526L142.997 87.4389L140.449 86.2121L138.643 87.1778L138.838 84.1767L139.92 83.491Z" fill="white"/>
</mask>
<g mask="url(#mask13_1765_6763)">
<path opacity="0.5" d="M139.92 83.491L140.512 85.7937L145.891 82.6699L147.2 83.3526L142.997 87.4389L140.449 86.2121L138.643 87.1778L138.838 84.1767L139.92 83.491Z" fill="white"/>
</g>
<path d="M139.92 83.4919L140.512 85.7946L145.891 82.6709L147.2 83.3535L142.997 87.4399L140.449 86.213L138.643 87.1788L138.838 84.1777L139.92 83.4919Z" stroke="#48535B" stroke-width="0.8" stroke-linecap="round" stroke-linejoin="round"/>
<path d="M139.27 111.096C139.27 111.816 139.27 112.184 139.27 112.184" stroke="#48535B" stroke-width="0.8" stroke-linecap="round" stroke-linejoin="round"/>
<path d="M139.968 89.4395C139.514 92.8127 139.286 96.2124 139.285 99.616C139.235 104.618 139.247 108.235 139.263 110.271" stroke="#48535B" stroke-width="0.8" stroke-linecap="round" stroke-linejoin="round"/>
<path d="M140.285 87.6445C140.285 87.6445 140.21 87.9591 140.096 88.6229" stroke="#48535B" stroke-width="0.8" stroke-linecap="round" stroke-linejoin="round"/>
<path d="M133.943 98.0781H105.713C104.171 98.0781 102.92 99.3288 102.92 100.872V106.609C102.92 108.152 104.171 109.403 105.713 109.403H133.943C135.486 109.403 136.737 108.152 136.737 106.609V100.872C136.737 99.3288 135.486 98.0781 133.943 98.0781Z" fill="#ED8B00" stroke="#48535B" stroke-width="0.8" stroke-linecap="round" stroke-linejoin="round"/>
<path d="M107.145 103.829L105.931 102.712L107.906 100.544C108.011 100.44 108.152 100.382 108.299 100.382C108.447 100.382 108.588 100.44 108.693 100.544L109.051 100.878C109.164 100.973 109.235 101.109 109.248 101.257C109.261 101.404 109.215 101.551 109.12 101.664L107.145 103.829Z" stroke="#48535B" stroke-width="0.8" stroke-linecap="round" stroke-linejoin="round"/>
<path d="M106.336 104.342L105.373 104.546L105.49 103.562" stroke="#48535B" stroke-width="0.8" stroke-linecap="round" stroke-linejoin="round"/>
<path d="M129.501 100.174H113.555C113.323 100.174 113.099 100.266 112.935 100.431C112.77 100.595 112.678 100.819 112.678 101.051C112.678 101.284 112.77 101.508 112.935 101.672C113.099 101.837 113.323 101.929 113.555 101.929H129.501C129.734 101.929 129.957 101.837 130.122 101.672C130.287 101.508 130.379 101.284 130.379 101.051C130.379 100.819 130.287 100.595 130.122 100.431C129.957 100.266 129.734 100.174 129.501 100.174Z" fill="#868686" stroke="#48535B" stroke-width="0.8" stroke-linecap="round" stroke-linejoin="round"/>
<path d="M126.746 102.989H113.555C113.323 102.989 113.099 103.082 112.935 103.246C112.77 103.411 112.678 103.634 112.678 103.867C112.678 104.1 112.77 104.323 112.935 104.488C113.099 104.652 113.323 104.745 113.555 104.745H126.746C126.978 104.745 127.202 104.652 127.366 104.488C127.531 104.323 127.623 104.1 127.623 103.867C127.623 103.634 127.531 103.411 127.366 103.246C127.202 103.082 126.978 102.989 126.746 102.989Z" fill="#B5C2C9" stroke="#48535B" stroke-width="0.8" stroke-linecap="round" stroke-linejoin="round"/>
<path d="M142.667 105.335C142.667 105.335 138.669 106.395 138.187 106.543C137.706 106.691 137.162 107.506 136.539 108.267C136.062 108.899 135.403 109.371 134.652 109.62C134.139 109.739 132.685 110.249 132.667 109.818C132.648 109.387 134.133 109.248 134.133 109.248L135.363 108.638C134.733 109.034 132.512 109.374 132.512 109.374C132.186 109.422 131.853 109.357 131.569 109.189C131.135 108.912 131.396 108.585 131.396 108.585C131.235 108.245 131.962 108.047 131.962 108.047L133.299 107.156C133.299 107.156 134.359 105.609 134.164 105.335C133.969 105.061 131.99 105.986 131.748 105.53C131.506 105.074 133.299 104.429 134.321 104.187C135.344 103.945 136.992 104.187 136.992 104.187L141.616 102.463L142.667 105.335Z" fill="white" stroke="#48535B" stroke-width="0.8" stroke-linecap="round" stroke-linejoin="round"/>
<path d="M131.88 108.651C132.071 108.653 132.261 108.637 132.45 108.604C132.96 108.404 133.434 108.121 133.853 107.768C134.167 107.481 134.482 106.928 134.718 106.887" stroke="#48535B" stroke-width="0.8" stroke-linecap="round" stroke-linejoin="round"/>
<path d="M132.094 109.032C132.294 109.022 132.491 108.982 132.679 108.913C133.24 108.752 133.785 108.541 134.309 108.283C134.623 108.082 135.032 107.654 135.252 107.695" stroke="#48535B" stroke-width="0.8" stroke-linecap="round" stroke-linejoin="round"/>
<path d="M147.593 89.204C147.574 88.0967 147.618 85.1145 150.604 85.3316C153.589 85.5486 153.278 88.6661 153.174 90.8367C153.07 93.0072 153.998 102.099 151.985 102.75L141.248 106.21L139.911 102.363L147.983 98.9842C147.983 98.9842 147.64 91.664 147.593 89.204Z" fill="#ED8B00"/>
<path d="M151.012 100.866C151.158 101.061 151.281 101.273 151.378 101.496" stroke="#48535B" stroke-width="0.8" stroke-linecap="round" stroke-linejoin="round"/>
<path d="M151.368 98.7574C151.368 98.7574 149.204 98.0968 148.88 98.9336C148.635 99.5627 149.704 99.6319 150.594 100.422" stroke="#48535B" stroke-width="0.8" stroke-linecap="round" stroke-linejoin="round"/>
<path d="M147.621 90.0723C147.621 89.742 147.621 89.4432 147.603 89.2041" stroke="#48535B" stroke-width="0.8" stroke-linecap="round" stroke-linejoin="round"/>
<path d="M150.613 85.3311C153.598 85.5355 153.287 88.6656 153.183 90.8362C153.079 93.0067 154.007 102.098 151.994 102.749L141.258 106.21L139.921 102.362L147.993 98.9837C147.993 98.9837 147.76 94.1235 147.653 90.9903" stroke="#48535B" stroke-width="0.8" stroke-linecap="round" stroke-linejoin="round"/>
<path d="M139.285 102.25L141.053 101.501L142.667 106.226L140.817 106.682L139.285 102.25Z" fill="#ED8B00"/>
<mask id="mask14_1765_6763" style="mask-type:luminance" maskUnits="userSpaceOnUse" x="139" y="101" width="4" height="6">
<path d="M139.284 102.251L141.052 101.502L142.666 106.227L140.816 106.683L139.284 102.251Z" fill="white"/>
</mask>
<g mask="url(#mask14_1765_6763)">
<path opacity="0.5" d="M139.284 102.251L141.052 101.502L142.666 106.227L140.816 106.683L139.284 102.251Z" fill="white"/>
</g>
<path d="M139.285 102.25L141.053 101.501L142.667 106.226L140.817 106.682L139.285 102.25Z" stroke="#48535B" stroke-width="0.8" stroke-linecap="round" stroke-linejoin="round"/>
<path d="M119.017 109.199C118.932 108.865 118.756 107.912 119.268 107.912C119.781 107.912 119.876 108.478 119.876 108.478C119.876 108.478 119.787 107.815 120.291 107.912C120.794 108.01 120.873 108.755 120.873 108.755C120.873 108.755 120.788 108.151 121.335 108.214C121.883 108.277 121.555 109.652 122.21 109.645C122.486 109.645 122.166 108.664 122.7 108.667C123.235 108.67 123.015 109.724 124.018 109.724C124.333 109.724 123.113 110.146 122.301 109.973C122.301 109.973 121.923 110.315 120.951 109.778C120.777 109.859 120.583 109.888 120.393 109.86C120.203 109.832 120.025 109.749 119.882 109.62C119.8 109.671 119.707 109.7 119.611 109.705C119.515 109.709 119.42 109.69 119.333 109.648C119.247 109.606 119.173 109.542 119.117 109.464C119.062 109.385 119.027 109.294 119.017 109.199Z" fill="white" stroke="#48535B" stroke-width="0.8" stroke-linecap="round" stroke-linejoin="round"/>
<path d="M119.866 108.874C119.854 108.987 119.865 109.102 119.898 109.211" stroke="#48535B" stroke-width="0.8" stroke-linecap="round" stroke-linejoin="round"/>
<path d="M120.901 109.132C120.901 109.132 120.882 109.113 120.939 109.375" stroke="#48535B" stroke-width="0.8" stroke-linecap="round" stroke-linejoin="round"/>
</svg>
